<?xml version="1.0" standalone="no"?>
<!DOCTYPE svg PUBLIC "-//W3C//DTD SVG 1.1//EN" "http://www.w3.org/Graphics/SVG/1.1/DTD/svg11.dtd" >
<svg xmlns="http://www.w3.org/2000/svg" xmlns:xlink="http://www.w3.org/1999/xlink" version="1.1">
<metadata>
Created by FontForge 20170731 at Thu Aug 20 05:50:10 2020
 By Aleksey,,,
Copyright (c) 2004 by Magenta/ 2008 by George Triantafyllakos. Released under the SIL Open Font License (OFL).
</metadata>
<defs>
<font id="BPreplay-Bold" horiz-adv-x="1280" >
  <font-face 
    font-family="BPreplay"
    font-weight="700"
    font-stretch="normal"
    units-per-em="2048"
    panose-1="2 0 8 3 0 0 0 2 0 4"
    ascent="1638"
    descent="-410"
    x-height="1188"
    cap-height="1595"
    bbox="-346 -502 2806 2009"
    underline-thickness="102"
    underline-position="-460"
    unicode-range="U+0020-2206"
  />
<missing-glyph horiz-adv-x="579" 
 />
    <glyph glyph-name=".notdef" horiz-adv-x="579" 
 />
    <glyph glyph-name=".null" horiz-adv-x="0" 
 />
    <glyph glyph-name="nonmarkingreturn" horiz-adv-x="682" 
 />
    <glyph glyph-name="space" unicode=" " horiz-adv-x="579" 
 />
    <glyph glyph-name="exclam" unicode="!" horiz-adv-x="425" 
d="M346 1413v-745q0 -82 -39 -121t-121 -39q-153 0 -153 160v745q0 170 155 170q158 0 158 -170zM8 182q0 76 53.5 129.5t128.5 53.5q78 0 131.5 -53t53.5 -130t-53.5 -129.5t-131.5 -52.5q-75 0 -128.5 53t-53.5 129z" />
    <glyph glyph-name="quotedbl" unicode="&#x22;" horiz-adv-x="755" 
d="M18 1147v268q0 86 39 128t121 42q156 0 156 -170v-268q0 -162 -158 -162t-158 162zM416 1147v268q0 170 159 170q162 0 162 -170v-268q0 -162 -164 -162q-81 0 -119 40t-38 122z" />
    <glyph glyph-name="numbersign" unicode="#" horiz-adv-x="1357" 
d="M270 1126h70q4 44 41 306q11 71 48.5 110t98.5 39q62 0 110 -46t48 -108l-41 -301h70l43 308q18 149 149 149q62 0 106 -44t44 -109v-19l-37 -285h24q66 0 114 -37.5t48 -111.5q0 -152 -172 -152h-53q-11 -42 -20 -112h26q74 0 115 -39t41 -115q0 -75 -51 -114t-111 -39
h-63l-37 -240q-24 -166 -168 -166q-135 0 -135 139v8q0 1 1 6t1 7l36 246h-73l-35 -238q-23 -168 -168 -168q-135 0 -135 139v8q0 3 1 7t1 6l35 246h-23q-80 0 -127 37.5t-47 115.5q0 74 52.5 114t117.5 40h66q10 39 22 112h-33q-159 0 -159 154q0 147 159 147zM676 825h-74
l-18 -112h73z" />
    <glyph glyph-name="dollar" unicode="$" horiz-adv-x="1114" 
d="M440 1632v54q0 76 16 102.5t83 26.5q23 0 39.5 -3t27 -13t16 -18.5t8 -29.5t3 -35.5t0.5 -46.5v-43q134 -24 244 -106q92 -67 92 -160q0 -66 -47 -119t-115 -53t-129 51l-45 29v-279q84 -41 140.5 -73t115 -77t92 -91t55 -108t21.5 -136q0 -207 -117 -342.5t-307 -171.5
v-86q0 -30 -1 -45t-5.5 -32.5t-15 -25t-28.5 -13t-46 -5.5q-35 0 -55.5 7t-29 27.5t-10.5 39.5t-2 61v59q-175 15 -321 111q-94 61 -94 162q0 81 39.5 119.5t119.5 38.5q62 0 121 -35q67 -43 135 -54v388q-57 27 -98.5 49.5t-92 55t-85 68t-65.5 79.5t-46.5 98.5
t-15.5 116.5q0 104 48.5 201t142 167.5t212.5 89.5zM709 492q0 63 -76 114v-256q76 49 76 142zM381 1182q0 -58 59 -101v205q-59 -24 -59 -104z" />
    <glyph glyph-name="percent" unicode="%" horiz-adv-x="1941" 
d="M1501 856q118 0 208 -62t134.5 -159.5t44.5 -212.5q0 -183 -103 -302.5t-284 -119.5q-122 0 -214.5 60.5t-138.5 158t-46 215.5q0 183 108 302.5t291 119.5zM1501 285q43 0 66.5 39t23.5 96t-23.5 102t-66.5 45t-68.5 -41.5t-25.5 -97.5q0 -58 24.5 -100.5t69.5 -42.5z
M453 725q-118 0 -210 62.5t-139 161.5t-47 214q0 179 108.5 298.5t287.5 119.5q178 0 286.5 -125.5t108.5 -302.5q0 -181 -107.5 -304.5t-287.5 -123.5zM453 1010q47 0 71.5 41t24.5 100t-26 101t-70 42q-42 0 -65 -41t-23 -98q0 -58 23 -101.5t65 -43.5zM582 188l495 1272
q21 56 61.5 84.5t92.5 28.5q64 0 105.5 -44t41.5 -106q0 -35 -18 -84l-510 -1282q-7 -28 -47 -57t-94 -29q-58 0 -99 43t-41 111q0 34 13 63z" />
    <glyph glyph-name="ampersand" unicode="&#x26;" horiz-adv-x="1556" 
d="M539 1237q0 -82 59 -160q74 82 74 148q0 38 -19.5 56.5t-46.5 18.5t-47 -16.5t-20 -46.5zM1118 33l-108 114q-80 -89 -186.5 -137.5t-223.5 -48.5q-252 0 -399.5 143t-147.5 367q0 264 275 479q-88 120 -88 256q0 89 31.5 162t84.5 118.5t118.5 70t135.5 24.5
q68 0 129.5 -23t111.5 -67.5t80 -117t30 -163.5q0 -159 -154 -317l199 -227l43 75q66 115 170 115q68 0 110.5 -41.5t42.5 -107.5q0 -64 -43 -136l-108 -159l122 -140q39 -42 39 -102q0 -69 -48 -119.5t-111 -50.5q-69 0 -105 33zM815 387l-289 318q-155 -127 -155 -236
q0 -84 70 -140.5t161 -56.5q120 0 213 115z" />
    <glyph glyph-name="quotesingle" unicode="'" horiz-adv-x="522" 
d="M451 1343l-117 -268q-48 -102 -156 -102q-65 0 -115.5 44t-50.5 107q0 28 8 56l115 280q49 125 166 125q66 0 116 -49.5t50 -118.5q0 -37 -16 -74z" />
    <glyph glyph-name="parenleft" unicode="(" horiz-adv-x="591" 
d="M301 1511q61 50 119 50q61 0 105 -44t44 -106t-43 -111q-98 -116 -149 -266.5t-51 -310.5q0 -169 50.5 -331.5t158.5 -274.5q34 -48 34 -107q0 -65 -41.5 -106t-105.5 -41q-73 0 -121 51q-145 145 -215 365.5t-70 453.5q0 221 70 421t215 357z" />
    <glyph glyph-name="parenright" unicode=")" horiz-adv-x="591" 
d="M274 1520q151 -162 222 -363.5t71 -423.5q0 -234 -69 -454.5t-213 -364.5q-48 -51 -119 -51q-64 0 -108 41t-44 106q0 58 35 107q110 111 159.5 273t49.5 333q0 160 -50.5 310.5t-148.5 266.5q-45 54 -45 111q0 62 46 106t108 44q57 0 106 -41z" />
    <glyph glyph-name="asterisk" unicode="*" 
d="M399 1120l-49 33q-53 47 -53 113q0 58 43 101.5t102 43.5q11 0 31 -4t23 -4l51 -33q0 10 -3 25t-3 22q17 67 56 101t91 34q45 0 86.5 -32.5t59.5 -92.5l-3 -57l21 14q36 25 84 25q54 0 98.5 -43t44.5 -102q0 -71 -73 -129l-29 -15l18 -8q41 -22 62.5 -57.5t21.5 -73.5
q0 -58 -42 -101.5t-101 -43.5q-29 0 -102 32v-22q0 -72 -43 -113t-103 -41q-56 0 -97 35.5t-50 101.5v41q-64 -36 -99 -36q-57 0 -101 42t-44 103q0 63 57 117z" />
    <glyph glyph-name="plus" unicode="+" 
d="M268 758h242v239q0 78 45 124t121 46q69 0 116.5 -49t47.5 -121v-239h241q84 0 132.5 -46t48.5 -120q0 -81 -45.5 -125.5t-135.5 -44.5h-241v-254q0 -69 -46.5 -118.5t-115.5 -49.5q-78 0 -123 46t-45 122v254h-242q-80 0 -127 42.5t-47 127.5q0 78 48 122t126 44z" />
    <glyph glyph-name="comma" unicode="," horiz-adv-x="520" 
d="M453 166l-138 -318q-46 -98 -143 -98q-62 0 -111 48t-49 112q0 18 11 51q0 1 1 3t1 3l122 297q50 115 160 115q64 0 111 -46.5t47 -107.5q0 -5 -12 -59z" />
    <glyph glyph-name="hyphen" unicode="-" horiz-adv-x="800" 
d="M203 758h375q170 0 170 -164q0 -81 -41.5 -119.5t-128.5 -38.5h-375q-170 0 -170 158q0 66 47 115t123 49z" />
    <glyph glyph-name="period" unicode="." horiz-adv-x="428" 
d="M8 182q0 76 53.5 129.5t128.5 53.5q78 0 131.5 -53t53.5 -130t-53.5 -129.5t-131.5 -52.5q-75 0 -128.5 53t-53.5 129z" />
    <glyph glyph-name="slash" unicode="/" 
d="M301 188l492 1272q49 113 157 113q64 0 105 -44t41 -106q0 -38 -17 -84l-510 -1282q-7 -28 -47 -57t-94 -29q-57 0 -98 43t-41 111q0 36 12 63z" />
    <glyph glyph-name="zero" unicode="0" horiz-adv-x="1206" 
d="M590 1581h8q97 0 178.5 -36t138 -98t99.5 -141t67.5 -171t36.5 -180.5t12 -176.5q0 -85 -12.5 -173.5t-38 -179.5t-69.5 -170.5t-101 -142.5t-138.5 -99t-176.5 -36q-86 0 -160 26.5t-128.5 71.5t-98.5 107.5t-73 133t-48.5 150t-28 156t-8.5 152.5q0 87 12.5 176t38 181
t69.5 172t102 143t140 99t179 36zM594 301q43 0 79 33t59 84t38.5 115t22 123t6.5 112q0 79 -11 159t-33.5 155.5t-64 123t-94.5 47.5q-59 0 -103 -49.5t-66 -128t-32 -154.5t-10 -149q0 -75 11.5 -153t34.5 -151.5t65.5 -120t97.5 -46.5z" />
    <glyph glyph-name="one" unicode="1" horiz-adv-x="782" 
d="M272 170v993q-63 -24 -110 -24q-65 0 -110.5 42.5t-45.5 108.5q0 55 34 100t101 64l301 82q54 0 91.5 -28t52.5 -68q16 -22 16 -125v-1145q0 -74 -45.5 -122t-118.5 -48q-74 0 -120 48t-46 122z" />
    <glyph glyph-name="two" unicode="2" horiz-adv-x="1126" 
d="M43 1108q0 105 41 194.5t109 148t154 91.5t177 33q89 0 173.5 -31t150.5 -86t106.5 -137.5t40.5 -177.5q0 -96 -39.5 -202.5t-109.5 -201.5q-37 -49 -138 -181t-180 -239h330q156 0 156 -157q0 -78 -40 -120t-118 -42h-606q-191 0 -191 158q0 60 45 121l498 673
q62 80 62 176q0 56 -44 89.5t-102 33.5q-60 0 -102.5 -39.5t-42.5 -111.5q0 -63 -43.5 -121.5t-118.5 -58.5q-78 0 -123 59t-45 129z" />
    <glyph glyph-name="three" unicode="3" horiz-adv-x="1095" 
d="M504 1581q130 0 234 -63t158 -160t54 -205q0 -95 -44.5 -178t-135.5 -141q117 -64 176.5 -165t59.5 -216q0 -89 -35 -174t-97.5 -152.5t-158 -108.5t-207.5 -41q-127 0 -232.5 58t-169.5 145q-59 83 -59 182q0 76 44.5 120t107.5 44q45 0 88.5 -27.5t64.5 -74.5
q52 -119 154 -119q70 0 121 44.5t51 123.5q0 69 -35.5 129t-99.5 70h-68q-89 0 -131.5 33t-42.5 106q0 74 42 104.5t132 30.5q40 0 60 4q39 11 64.5 66.5t25.5 109.5q0 61 -34.5 98.5t-94.5 37.5q-42 0 -71 -13t-41.5 -34t-16 -32.5t-5.5 -23.5q-1 -12 -7 -28t-19 -36
t-39 -33t-61 -13q-170 0 -170 147q0 152 126.5 268.5t311.5 116.5z" />
    <glyph glyph-name="four" unicode="4" horiz-adv-x="1212" 
d="M649 176v168h-430q-88 0 -137 50.5t-49 125.5q0 68 43 125l-4 -6l475 766q81 131 217 131q90 0 149.5 -61t59.5 -164v-647q153 0 153 -162q0 -156 -151 -156v-170q0 -87 -42 -131.5t-122 -44.5q-76 0 -119 45t-43 131zM649 993l-190 -329h190v329z" />
    <glyph glyph-name="five" unicode="5" horiz-adv-x="1126" 
d="M414 1532h430q73 0 116.5 -49t43.5 -121q0 -160 -160 -160h-340q-4 -34 -25 -158q131 0 235 -43.5t167 -117t96 -164t33 -191.5q0 -103 -34.5 -200t-100 -176t-171 -127t-235.5 -48q-95 0 -184 31t-150 78.5t-98 104.5t-37 108q0 73 44.5 115.5t105.5 42.5q35 0 70 -18.5
t59 -51.5q30 -39 86.5 -64.5t111.5 -25.5q89 0 146 64.5t57 150.5q0 87 -54.5 152t-152.5 65q-35 0 -93.5 -15.5t-88.5 -15.5q-164 0 -164 158q0 33 96 526q14 70 64 110t127 40z" />
    <glyph glyph-name="six" unicode="6" horiz-adv-x="1114" 
d="M756 1262q-11 -10 -47.5 -42t-53.5 -47.5t-48.5 -46.5t-50 -54.5t-40 -56.5t-35.5 -65q57 31 166 31q95 0 171 -38.5t123 -103t72 -144t25 -165.5q0 -146 -61.5 -271t-180 -203.5t-268.5 -78.5q-120 0 -218 48.5t-159 130t-93.5 184.5t-32.5 217q0 108 27.5 217.5
t73 204.5t110.5 188.5t132.5 170t145.5 149.5q63 49 123 49q72 0 120 -44t48 -120q0 -61 -49 -110zM348 528q0 -92 48.5 -161t131.5 -72q87 7 138 74.5t51 156.5q0 86 -49.5 147.5t-143.5 61.5q-85 0 -130.5 -61.5t-45.5 -145.5z" />
    <glyph glyph-name="seven" unicode="7" horiz-adv-x="1114" 
d="M190 1534h646q70 0 122 -49.5t52 -126.5q0 -35 -19 -84l-483 -1145q-56 -129 -172 -129q-78 0 -116 47.5t-38 114.5q0 40 19 84q255 602 409 956h-420q-176 0 -176 168q0 164 176 164z" />
    <glyph glyph-name="eight" unicode="8" horiz-adv-x="1120" 
d="M41 485q0 106 58.5 207t148.5 152q-70 42 -113 126t-43 175q0 181 132 304.5t317 123.5q190 0 314 -120t124 -308q0 -83 -45 -164.5t-113 -124.5q84 -40 149.5 -153t65.5 -222q0 -135 -64.5 -250.5t-178.5 -184.5t-250 -69q-223 0 -362.5 143.5t-139.5 364.5zM543 676
q-73 0 -119.5 -54t-46.5 -130q0 -79 45.5 -133t120.5 -54q70 0 113.5 53t43.5 129q0 79 -45 134t-112 55zM537 993q48 0 78 42.5t30 99.5q0 55 -31.5 86.5t-74.5 31.5q-48 0 -83.5 -31.5t-35.5 -86.5q0 -59 31.5 -100.5t85.5 -41.5z" />
    <glyph glyph-name="nine" unicode="9" horiz-adv-x="1185" 
d="M358 256q209 168 316 326q-98 -35 -193 -35q-103 0 -188.5 43.5t-139 114.5t-83 156t-29.5 173q0 104 33.5 200t96.5 174t165 124.5t229 46.5q156 0 273.5 -78.5t178 -212t60.5 -301.5q0 -84 -14 -170.5t-50.5 -191.5t-93 -205t-149 -209t-211.5 -205q-48 -39 -113 -39
q-66 0 -110.5 43.5t-44.5 106.5q0 49 17.5 80.5t49.5 58.5zM557 1255q-62 0 -106 -37t-63 -87.5t-19 -106.5q0 -104 55.5 -164.5t134.5 -60.5q87 0 143 56.5t56 166.5q0 58 -20.5 109t-67.5 87.5t-113 36.5z" />
    <glyph glyph-name="colon" unicode=":" horiz-adv-x="423" 
d="M8 182q0 76 53.5 129.5t128.5 53.5q78 0 131.5 -53t53.5 -130t-53.5 -129.5t-131.5 -52.5q-75 0 -128.5 53t-53.5 129zM8 819q0 76 53.5 129t128.5 53q78 0 131.5 -52.5t53.5 -129.5q0 -75 -53.5 -127.5t-131.5 -52.5q-75 0 -128.5 52.5t-53.5 127.5z" />
    <glyph glyph-name="semicolon" unicode=";" horiz-adv-x="520" 
d="M109 819q0 77 52.5 129.5t129.5 52.5t129.5 -52.5t52.5 -129.5q0 -75 -53 -127.5t-129 -52.5t-129 52.5t-53 127.5zM315 -152l138 318q12 54 12 59q0 61 -47 107.5t-111 46.5q-110 0 -160 -115l-122 -297q0 -1 -1 -3t-1 -3q-11 -33 -11 -51q0 -64 49 -112t111 -48
q97 0 143 98z" />
    <glyph glyph-name="less" unicode="&#x3c;" horiz-adv-x="1333" 
d="M1167 866l-626 -260l616 -278q119 -53 119 -160q0 -67 -43.5 -116.5t-112.5 -49.5q-49 0 -112 29l-809 403q-54 27 -84.5 70t-30.5 96q0 110 115 164l833 387q1 0 3 1t3 1q61 21 92 21q64 0 106 -43t42 -107q0 -55 -26.5 -92.5t-84.5 -65.5z" />
    <glyph glyph-name="equal" unicode="=" horiz-adv-x="1349" 
d="M254 963h858q156 0 156 -160q0 -156 -156 -156h-858q-158 0 -158 160q0 156 158 156zM1112 166h-858q-158 0 -158 158q0 159 158 159h858q156 0 156 -157q0 -82 -38 -121t-118 -39z" />
    <glyph glyph-name="greater" unicode="&#x3e;" horiz-adv-x="1333" 
d="M836 594l-641 272q-58 28 -84.5 65.5t-26.5 92.5q0 64 41.5 107t105.5 43q30 0 101 -23l829 -387q117 -56 117 -164q0 -51 -32 -95.5t-83 -70.5l-811 -403q-63 -29 -110 -29q-71 0 -111.5 42.5t-40.5 109.5q0 98 121 159q112 54 307 137.5t318 143.5z" />
    <glyph glyph-name="question" unicode="?" horiz-adv-x="1003" 
d="M217 182q0 77 53 130t129 53q75 0 128 -53.5t53 -129.5t-53 -129t-128 -53q-77 0 -129.5 53t-52.5 129zM543 1118q0 49 -29 74t-68 25q-34 0 -60.5 -24.5t-27.5 -59.5q-7 -74 -52 -116t-107 -42q-64 0 -110 45t-46 129q0 92 36.5 167t96 122t132 72.5t147.5 25.5
q82 0 155 -27.5t130.5 -78.5t91.5 -131.5t34 -180.5q0 -234 -354 -592q-56 -49 -115 -49q-71 0 -113 44.5t-42 115.5q0 65 63 131q123 123 180.5 202t57.5 148z" />
    <glyph glyph-name="at" unicode="@" horiz-adv-x="1705" 
d="M1024 1098q10 88 68 88q38 0 53.5 -24.5t15.5 -74.5v-423q0 -84 23.5 -124t62.5 -40q78 0 125 100.5t47 294.5q0 250 -156 399.5t-397 149.5q-147 0 -266.5 -53.5t-197.5 -147.5t-120 -222t-42 -278q0 -142 47.5 -262t129 -201t191.5 -126t234 -45q88 0 172 14t175 55.5
t150 106.5q38 41 76 41q25 0 41.5 -15t16.5 -39q0 -42 -27 -71q-73 -81 -184 -134.5t-217 -73.5t-214 -20q-150 0 -284 54t-234 151t-158.5 242.5t-58.5 318.5q0 180 52.5 333.5t149.5 266t243.5 176.5t326.5 64q150 0 276 -45.5t217.5 -130.5t143 -212.5t51.5 -285.5
q0 -153 -38.5 -277t-108 -195t-156.5 -71q-110 0 -204 117q-104 -114 -238 -114q-84 0 -151.5 33.5t-108.5 90t-62.5 126.5t-21.5 147q0 109 39 204t122.5 158.5t196.5 63.5q109 0 199 -90zM1012 610v357q-76 82 -162 82q-74 0 -129.5 -42.5t-82 -106.5t-26.5 -138
q0 -105 55 -180.5t160 -75.5q123 0 185 104z" />
    <glyph glyph-name="A" unicode="A" horiz-adv-x="1392" 
d="M676 1026l-148 -405h291q-26 76 -65 183.5t-78 221.5zM1014 104l-72 185h-522q-11 -29 -29.5 -81.5t-25.5 -72.5q-47 -135 -175 -135q-78 0 -116.5 46.5t-38.5 115.5q0 27 12 67l430 1217q53 145 199 145q145 0 198 -145q212 -580 318 -875.5t122.5 -346.5t16.5 -64
q0 -71 -42.5 -115.5t-117.5 -44.5q-116 0 -157 104z" />
    <glyph glyph-name="B" unicode="B" horiz-adv-x="1257" 
d="M27 186v1221q0 184 172 184h372q62 0 128 -14t133 -47.5t119.5 -81t86 -122t33.5 -163.5q0 -51 -29.5 -114t-75.5 -110t-89 -52q81 -12 152.5 -77.5t111 -153t39.5 -169.5q0 -140 -69 -252.5t-182 -173.5t-245 -61h-453q-95 0 -137 31q-67 47 -67 155zM356 707v-379h310
q90 0 141 51.5t51 122.5q0 83 -67 144t-191 61h-244zM356 963h240q78 0 120 41.5t42 101.5q0 64 -47 111t-131 47h-224v-301z" />
    <glyph glyph-name="C" unicode="C" horiz-adv-x="1458" 
d="M1026 418q49 49 113 49q82 0 123 -47.5t41 -118.5q0 -85 -62 -141q-205 -183 -467 -183q-144 0 -267 46t-209 125.5t-146.5 185t-89.5 224.5t-29 245q0 127 29.5 247.5t91.5 228t149 188.5t211 128t270 47q272 0 467 -178q64 -61 64 -139q0 -76 -46.5 -123t-115.5 -47
q-32 0 -68 13.5t-57 35.5q-96 96 -250 96q-98 0 -176 -41t-126 -110t-73.5 -154.5t-25.5 -179.5q0 -95 26 -181.5t75 -154.5t127.5 -108.5t174.5 -40.5q158 0 246 88z" />
    <glyph glyph-name="D" unicode="D" horiz-adv-x="1351" 
d="M33 172v1235q0 184 205 184h374q127 0 235.5 -45.5t185.5 -123t131.5 -180.5t81 -218t26.5 -236q0 -150 -49.5 -291.5t-138 -252t-222 -177.5t-289.5 -67h-366q-102 0 -138 32.5t-36 139.5zM592 1264h-230v-936h203q87 0 158.5 39t116.5 104.5t69.5 147t24.5 169.5
q0 125 -37 231t-116.5 175.5t-188.5 69.5z" />
    <glyph glyph-name="E" unicode="E" horiz-adv-x="993" 
d="M23 180v1233q0 178 172 178h577q84 0 124 -40t40 -124q0 -163 -164 -163h-422v-277h330q164 0 164 -166q0 -162 -164 -162h-330v-331h436q177 0 177 -164t-177 -164h-591q-47 0 -76.5 5.5t-49.5 16.5t-29.5 33.5t-13 50.5t-3.5 74z" />
    <glyph glyph-name="F" unicode="F" horiz-adv-x="909" 
d="M20 150v1257q0 184 173 184h559q85 0 125.5 -40t40.5 -124q0 -163 -166 -163h-402v-312h283q162 0 162 -166q0 -163 -162 -163h-283v-473q0 -150 -166 -150q-80 0 -122 38.5t-42 111.5z" />
    <glyph glyph-name="G" unicode="G" horiz-adv-x="1478" 
d="M756 313q139 0 221.5 80.5t97.5 227.5h-297q-178 0 -178 163q0 166 184 166h412q57 0 97.5 -15t63 -38t35 -60t16 -70.5t3.5 -80.5q0 -206 -80 -366.5t-230.5 -251.5t-350.5 -91q-140 0 -258.5 44.5t-201 121t-140.5 179.5t-85.5 218.5t-27.5 239.5q0 137 29 264
t89.5 237.5t146.5 192.5t208 129.5t266 47.5q122 0 243.5 -42t204.5 -119.5t83 -168.5q0 -74 -42.5 -118t-103.5 -44q-69 0 -125 53q-109 99 -266 99q-95 0 -170 -42t-121.5 -115t-71 -168t-24.5 -204q0 -91 23.5 -174t68.5 -149.5t118 -106t163 -39.5z" />
    <glyph glyph-name="H" unicode="H" horiz-adv-x="1390" 
d="M35 164v1266q0 165 160 165q85 0 125 -40t40 -125v-457h594v457q0 84 40 124.5t124 40.5q166 0 166 -165v-1266q0 -164 -166 -164q-164 0 -164 164v479h-594v-479q0 -164 -163 -164q-162 0 -162 164z" />
    <glyph glyph-name="I" unicode="I" horiz-adv-x="417" 
d="M2 166v1264q0 165 164 165q166 0 166 -165v-1264q0 -166 -166 -166q-164 0 -164 166z" />
    <glyph glyph-name="J" unicode="J" horiz-adv-x="925" 
d="M805 1430v-1053q0 -184 -114 -293t-298 -109q-188 0 -319 119q-58 46 -58 123q0 168 160 168q45 0 133 -59q43 -29 86 -29q37 0 57.5 21.5t20.5 58.5v1053q0 85 39.5 125t124.5 40q168 0 168 -165z" />
    <glyph glyph-name="K" unicode="K" horiz-adv-x="1210" 
d="M31 156v1288q0 151 162 151q165 0 165 -151v-447l498 547q37 47 113 47q66 0 119 -52.5t53 -117.5q0 -72 -47 -114q-63 -70 -174 -189t-181 -196l398 -650q41 -43 41 -108q0 -72 -60 -119t-106 -47q-48 0 -78 18t-66 58l-368 600l-142 -152v-366q0 -156 -161 -156
q-166 0 -166 156z" />
    <glyph glyph-name="L" unicode="L" horiz-adv-x="1040" 
d="M25 203v1227q0 165 161 165q85 0 125.5 -40t40.5 -125v-1102h514q166 0 166 -162q0 -85 -40.5 -125.5t-125.5 -40.5h-653q-188 0 -188 203z" />
    <glyph glyph-name="M" unicode="M" horiz-adv-x="1888" 
d="M678 1405l221 -733l225 735q29 92 88 140t140 48q87 0 141.5 -56t69.5 -163l176 -1196v-8q0 -1 1 -3t1 -3q0 -75 -45.5 -119.5t-116.5 -44.5q-79 0 -120 39t-52 119l-104 776q-43 -130 -122.5 -400.5t-117.5 -388.5q-23 -72 -67.5 -109.5t-100.5 -37.5q-127 0 -170 147
l-217 793l-131 -778q-13 -79 -52.5 -119.5t-115.5 -40.5t-118 40t-42 120q0 29 2 45l189 1171q38 221 213 221q78 0 137 -50.5t88 -143.5z" />
    <glyph glyph-name="N" unicode="N" horiz-adv-x="1372" 
d="M33 168v1249q0 178 162 178q107 0 180 -108l563 -838v778q0 166 162 166q166 0 166 -166v-1249q0 -178 -164 -178q-103 0 -172 96l-570 836v-764q0 -168 -163 -168q-164 0 -164 168z" />
    <glyph glyph-name="O" unicode="O" horiz-adv-x="1542" 
d="M735 1638q137 0 254 -46.5t199 -126.5t140 -186.5t86 -226t28 -245.5t-28 -245t-86 -224.5t-140 -184.5t-199 -125t-254 -46q-135 0 -250 46.5t-196 126t-138 186t-84.5 226.5t-27.5 246q0 125 27 244t84.5 224.5t138 184.5t196 125.5t250.5 46.5zM735 1307
q-117 0 -200.5 -72t-121.5 -180.5t-38 -237.5q0 -98 23 -188t67 -162.5t115 -116t159 -43.5q72 0 133 27.5t103.5 74.5t72.5 110.5t44 135t14 148.5q0 97 -23.5 186t-68 161t-117 114.5t-162.5 42.5z" />
    <glyph glyph-name="P" unicode="P" horiz-adv-x="1251" 
d="M27 166v1257q0 170 172 170h428q236 0 387 -146t151 -378q0 -145 -69 -264t-189.5 -186.5t-267.5 -67.5h-285v-385q0 -166 -164 -166q-83 0 -123 40.5t-40 125.5zM600 1266h-246v-387h277q91 0 145.5 51.5t54.5 140.5q0 93 -59.5 144t-171.5 51z" />
    <glyph glyph-name="Q" unicode="Q" horiz-adv-x="1564" 
d="M737 1638q137 0 253 -46.5t198 -126.5t140 -186.5t86 -226t28 -245.5q0 -245 -101 -449l50 -39l34 -40q50 -50 50 -115q0 -67 -43.5 -114.5t-118.5 -47.5q-64 0 -109 45l-67 72q-174 -137 -400 -137q-135 0 -250 46.5t-196.5 126t-139 186t-85 226.5t-27.5 246
q0 125 27.5 244t85 224.5t138.5 185t196.5 125.5t250.5 46zM739 1307q-117 0 -201 -72t-122.5 -180.5t-38.5 -237.5q0 -98 23.5 -188t67.5 -162.5t114.5 -116t158.5 -43.5q99 0 170 41l-131 129q-53 53 -53 123q0 74 43 121t104 47q49 0 91 -33q24 -20 74.5 -75.5
t56.5 -59.5q12 51 12 203q0 77 -14.5 150t-44.5 137.5t-73 112.5t-104 76t-133 28z" />
    <glyph glyph-name="R" unicode="R" horiz-adv-x="1269" 
d="M25 180v1243q0 170 202 170h408q125 0 228 -40t168.5 -107t101.5 -152t36 -178q0 -122 -60.5 -232.5t-180.5 -187.5l198 -434q27 -68 27 -106q0 -72 -39.5 -115t-116.5 -43q-103 0 -149 90l-258 524h-238v-432q0 -180 -162 -180q-165 0 -165 180zM649 1266h-297v-328h297
q82 0 133.5 54.5t51.5 123.5q0 62 -47 106t-138 44z" />
    <glyph glyph-name="S" unicode="S" horiz-adv-x="1114" 
d="M678 1239q-78 59 -160 59q-68 0 -102.5 -26t-34.5 -90q0 -24 10.5 -45t25.5 -35.5t43 -31t50 -26.5t61 -27t62 -28q84 -41 140.5 -73t115 -77t92 -91t55 -108t21.5 -136q0 -162 -74.5 -283.5t-200.5 -183.5t-284 -62q-206 0 -379 113q-94 61 -94 162q0 81 39.5 119.5
t119.5 38.5q62 0 121 -35q91 -58 193 -58q90 0 150.5 46.5t60.5 130.5q0 52 -48 93t-172 99q-57 26 -91 43t-88 47.5t-87 56t-72.5 64.5t-61.5 78.5t-37 91.5t-15 109q0 86 35 169t96.5 148.5t153.5 106t198 40.5q203 0 357 -118q92 -67 92 -160q0 -66 -47 -119t-115 -53
t-129 51z" />
    <glyph glyph-name="T" unicode="T" horiz-adv-x="1077" 
d="M381 174v1092h-186q-170 0 -170 161q0 166 170 166h702q166 0 166 -166q0 -161 -166 -161h-188v-1092q0 -174 -160 -174q-168 0 -168 174z" />
    <glyph glyph-name="U" unicode="U" horiz-adv-x="1402" 
d="M35 635v782q0 90 42.5 133t129.5 43t128.5 -43t41.5 -133v-768q0 -92 24 -158t67 -101.5t94.5 -51.5t115.5 -16q63 0 110.5 15.5t86 51t59 101t20.5 159.5v768q0 90 42.5 133t129.5 43t129.5 -43t42.5 -133v-782q0 -143 -34 -256t-92 -187.5t-140.5 -123.5t-174.5 -70
t-198 -21q-107 0 -198 21.5t-171 70.5t-135.5 123.5t-87.5 187t-32 255.5z" />
    <glyph glyph-name="V" unicode="V" horiz-adv-x="1353" 
d="M362 1477l304 -904q52 147 150 454.5t147 447.5q43 120 155 120q64 0 121 -53.5t57 -118.5q0 -31 -14 -59l-420 -1184q-64 -180 -198 -180q-126 0 -185 164l-434 1204q-10 38 -10 66q0 163 164 163q123 0 163 -120z" />
    <glyph glyph-name="W" unicode="W" horiz-adv-x="1882" 
d="M383 1446l145 -793q36 127 95 404.5t92 396.5q41 141 192 141t189 -141l200 -788l119 778q25 155 170 155q71 0 120.5 -47.5t49.5 -121.5v-13q0 -12 -4 -24q-41 -235 -120.5 -666t-102.5 -555q-13 -76 -73.5 -124t-137.5 -48q-70 0 -126.5 39t-78.5 119l-211 764
l-184 -736q-23 -92 -84.5 -141t-130.5 -49q-75 0 -136.5 52t-76.5 134l-240 1248q0 75 49 120t117 45t111 -39t57 -110z" />
    <glyph glyph-name="X" unicode="X" horiz-adv-x="1359" 
d="M70 264l387 600l-334 467q-33 47 -33 103q0 69 48 114t114 45q85 0 139 -71l262 -365q41 65 118.5 182.5t113.5 173.5q50 80 139 80q64 0 113 -47.5t49 -115.5q0 -47 -31 -97l-303 -446l405 -621q41 -62 41 -121q0 -147 -147 -147q-88 0 -152 82l-344 504l-319 -500
q-54 -86 -154 -86q-147 0 -147 149q0 61 35 117z" />
    <glyph glyph-name="Y" unicode="Y" horiz-adv-x="1157" 
d="M401 176v473q-56 100 -173.5 343t-174.5 345q-26 50 -26 97q0 79 40 120t117 41q100 0 140 -88l251 -559q39 65 121 279.5t121 279.5q54 88 150 88q157 0 157 -155q0 -49 -24 -90l-367 -705v-469q0 -91 -40.5 -133.5t-125.5 -42.5q-84 0 -125 43t-41 133z" />
    <glyph glyph-name="Z" unicode="Z" horiz-adv-x="1224" 
d="M66 299l641 967h-484q-166 0 -166 161q0 166 166 166h762q97 0 144 -43t47 -112q0 -62 -54 -146l-641 -964h551q83 0 125.5 -41t42.5 -119q0 -168 -168 -168h-842q-159 0 -159 174q0 64 35 125z" />
    <glyph glyph-name="bracketleft" unicode="[" horiz-adv-x="516" 
d="M12 68v1314q0 181 166 181h133q152 0 152 -156q0 -142 -135 -145v-1078q135 -6 135 -143q0 -156 -152 -156h-133q-166 0 -166 183z" />
    <glyph glyph-name="backslash" unicode="\" horiz-adv-x="954" 
d="M344 1432l494 -1248q12 -28 12 -49q0 -62 -43.5 -104.5t-108.5 -42.5q-115 0 -161 116l-494 1246q-12 34 -12 61q0 71 45.5 110.5t113.5 39.5q65 0 95.5 -29.5t58.5 -99.5z" />
    <glyph glyph-name="bracketright" unicode="]" horiz-adv-x="516" 
d="M12 45q0 139 133 139v1063q-133 3 -133 148q0 79 36.5 116t113.5 37h135q166 0 166 -178v-1302q0 -183 -166 -183h-135q-150 0 -150 160z" />
    <glyph glyph-name="asciicircum" unicode="^" 
d="M848 1454l391 -719q25 -59 25 -96q0 -75 -43.5 -114.5t-114.5 -39.5q-57 0 -94 28.5t-72 92.5l-252 473l-262 -475q-38 -68 -68.5 -93.5t-93.5 -25.5q-67 0 -114.5 40.5t-47.5 113.5q0 56 29 98l406 721q53 90 155 90q104 0 156 -94z" />
    <glyph glyph-name="underscore" unicode="_" horiz-adv-x="1257" 
d="M1083 -313h-909q-160 0 -160 149q0 152 160 152h909q162 0 162 -154q0 -147 -162 -147z" />
    <glyph glyph-name="grave" unicode="`" horiz-adv-x="522" 
d="M453 1337l-119 -274q-16 -35 -30.5 -57t-46.5 -42t-75 -20q-75 0 -123.5 43.5t-48.5 108.5q0 11 5.5 36t11.5 35l120 283q20 46 60 75t94 29q74 0 120 -41t46 -116q0 -25 -14 -60z" />
    <glyph glyph-name="a" unicode="a" horiz-adv-x="1146" 
d="M229 1137q134 55 283 55q80 0 153.5 -15t141 -48.5t116.5 -83.5t78 -124t29 -165v-613q0 -64 -44 -110.5t-116 -46.5q-38 0 -81.5 27.5t-47.5 82.5v39q-70 -74 -157 -111.5t-176 -37.5q-167 0 -267 98t-100 233q0 70 28.5 137t80.5 120.5t132 86.5t175 33q176 0 293 -84
v101q0 58 -39 103.5t-95.5 68t-115.5 22.5q-43 0 -116.5 -13t-109.5 -13q-151 0 -151 129q0 86 106 129zM362 358q0 -47 46 -72.5t108 -25.5q75 0 133 29t58 80q0 38 -53 61t-119 23q-71 0 -122 -24.5t-51 -70.5z" />
    <glyph glyph-name="b" unicode="b" horiz-adv-x="1173" 
d="M41 145v1368q0 162 156 162q159 0 159 -162v-473q64 89 139.5 127.5t168.5 38.5q62 0 121.5 -24.5t113 -75t94 -122t64.5 -171.5t24 -217q0 -122 -41.5 -237.5t-107.5 -197.5t-151 -131.5t-169 -49.5q-85 0 -165.5 50t-118.5 142v-66q0 -60 -45 -92t-88 -32
q-154 0 -154 163zM575 289q64 0 107 47.5t59.5 113t16.5 142.5q0 56 -10 110t-30.5 102.5t-57.5 78.5t-85 30q-70 0 -120 -49t-71.5 -118t-21.5 -146q0 -127 55 -219t158 -92z" />
    <glyph glyph-name="c" unicode="c" horiz-adv-x="1087" 
d="M610 891q-109 0 -181.5 -83.5t-72.5 -217.5q0 -124 76 -210.5t182 -86.5q90 0 154 45q32 22 74 22q55 0 101 -44t46 -105q0 -78 -84 -141q-134 -88 -293 -88q-160 0 -292 80.5t-207.5 222t-75.5 313.5q0 132 46 246.5t123.5 192t182 121.5t219.5 44q150 0 254 -47
q52 -24 84.5 -64t32.5 -85q0 -69 -41 -109.5t-109 -40.5q-28 0 -103 17.5t-116 17.5z" />
    <glyph glyph-name="d" unicode="d" horiz-adv-x="1187" 
d="M758 1053v460q0 79 42 121.5t120 42.5t117.5 -42t39.5 -122v-1388q0 -74 -40 -113t-117 -39q-144 0 -144 146v47q-61 -92 -139.5 -140.5t-163.5 -48.5q-81 0 -159 45t-139 123.5t-98.5 195t-37.5 249.5q0 136 37 253.5t97.5 196t139 123.5t162.5 45q80 0 159 -40
t124 -115zM553 283q82 0 146.5 86t64.5 227q0 142 -61.5 228.5t-143.5 86.5q-62 0 -108.5 -48.5t-68.5 -120.5t-22 -154q0 -81 20.5 -148.5t65.5 -112t107 -44.5z" />
    <glyph glyph-name="e" unicode="e" horiz-adv-x="1185" 
d="M571 1210q243 0 377.5 -143t134.5 -385q0 -33 -6.5 -58.5t-15.5 -42t-29.5 -28t-35.5 -17t-48.5 -8.5t-54 -3.5t-64.5 -0.5h-469q0 -52 20 -96t50 -71t67.5 -46t71.5 -27t62 -8q53 0 103 20t81.5 43.5t71.5 43.5t76 20q52 0 84 -34t32 -101q0 -56 -35 -94
q-158 -197 -442 -197q-174 0 -303.5 86.5t-193.5 226.5t-64 312q0 94 22 182.5t66.5 166t107 135t148.5 91t186 33.5zM377 737h379q0 93 -54 144t-127 51q-77 0 -137.5 -52.5t-60.5 -142.5z" />
    <glyph glyph-name="f" unicode="f" horiz-adv-x="729" 
d="M184 158v735q-82 2 -121.5 32.5t-39.5 104.5q0 77 40 109t123 32v140q4 81 40.5 148.5t93 110.5t124.5 66t138 23q84 0 128 -40.5t44 -115.5q0 -67 -41.5 -99t-89.5 -32q-50 0 -82.5 -38t-32.5 -89v-74q3 0 6.5 1.5t7.5 1.5q87 0 127.5 -32t40.5 -108q0 -78 -40 -110.5
t-128 -32.5h-24v-733q0 -158 -156 -158q-158 0 -158 158z" />
    <glyph glyph-name="g" unicode="g" horiz-adv-x="1193" 
d="M758 1053v-11q0 79 42 121.5t120 42.5t117.5 -42t39.5 -122v-884q0 -156 -44 -283t-119 -208.5t-173.5 -125t-210.5 -43.5q-176 0 -346 105q-78 52 -78 143q0 67 43 115.5t115 48.5q17 0 34.5 -4.5t27 -8.5t28 -13.5t23.5 -12.5q83 -45 174 -45q128 0 176.5 91t48.5 269
q-106 -188 -303 -188q-82 0 -159.5 42t-139 116.5t-98.5 188t-37 245.5q0 136 37 253.5t97.5 196t139 123.5t162.5 45q80 0 159 -40t124 -115zM553 283q82 0 146.5 86t64.5 227q0 142 -61.5 228.5t-143.5 86.5q-62 0 -108.5 -48.5t-68.5 -120.5t-22 -154q0 -81 20.5 -148.5
t65.5 -112t107 -44.5z" />
    <glyph glyph-name="h" unicode="h" horiz-adv-x="1067" 
d="M37 158v1335q0 164 153 164q160 0 160 -164v-449q130 148 285 148q50 0 97 -13t93 -43.5t80 -76t55 -116t21 -157.5v-628q0 -158 -160 -158q-77 0 -117 40t-40 118v571q0 87 -45.5 134.5t-106.5 47.5q-66 0 -114 -48t-48 -134v-571q0 -158 -160 -158q-153 0 -153 158z
" />
    <glyph glyph-name="i" unicode="i" horiz-adv-x="528" 
d="M68 160v858q0 158 157 158q162 0 162 -158v-858q0 -160 -160 -160q-159 0 -159 160zM39 1481q0 76 53.5 129t128.5 53q78 0 131.5 -52.5t53.5 -129.5t-53.5 -130t-131.5 -53q-75 0 -128.5 53.5t-53.5 129.5z" />
    <glyph glyph-name="j" unicode="j" horiz-adv-x="489" 
d="M8 1481q0 77 53 129.5t129 52.5q77 0 131 -53t54 -129t-54 -129.5t-131 -53.5q-76 0 -129 53t-53 130zM344 -82l2 1112q0 158 -158 158q-78 0 -117.5 -39t-47.5 -119v-1046q0 -51 -32.5 -89t-82.5 -38q-48 0 -89.5 -32t-41.5 -99q0 -75 44 -115.5t128 -40.5
q95 0 181.5 39t147 120.5t66.5 188.5z" />
    <glyph glyph-name="k" unicode="k" horiz-adv-x="1159" 
d="M35 158v1337q0 160 155 160q158 0 158 -160v-688l400 338q48 39 106 39q63 0 112.5 -50t49.5 -114q0 -39 -15 -64.5t-51 -52.5l-223 -186q88 -162 160 -277.5t98 -149t38.5 -62.5t12.5 -72q0 -71 -36 -115.5t-113 -44.5q-43 0 -86 23.5t-66 58.5l-256 452
q-118 -94 -131 -110v-262q0 -158 -158 -158q-155 0 -155 158z" />
    <glyph glyph-name="l" unicode="l" horiz-adv-x="450" 
d="M6 160v1337q0 78 40 120t118 42t119 -42t41 -120v-1337q0 -160 -158 -160q-82 0 -121 39t-39 121z" />
    <glyph glyph-name="m" unicode="m" horiz-adv-x="1726" 
d="M37 158v864q0 69 40 116.5t113 47.5q76 0 118 -44t42 -98q56 63 146 105.5t180 42.5q85 0 155 -42.5t109 -131.5q49 78 138.5 124t187.5 46q68 0 128 -23.5t109 -70t78 -126t29 -182.5v-628q0 -158 -160 -158q-77 0 -117.5 40t-40.5 118v571q0 87 -45 134.5t-106 47.5
q-59 0 -105 -38.5t-55 -108.5v-606q0 -158 -160 -158q-77 0 -117 40t-40 118v571q0 87 -45.5 134.5t-106.5 47.5q-66 0 -114 -48t-48 -134v-571q0 -158 -160 -158q-153 0 -153 158z" />
    <glyph glyph-name="n" unicode="n" horiz-adv-x="1069" 
d="M37 158v864q0 69 40 116.5t113 47.5q76 0 118 -44t42 -98q130 148 285 148q50 0 97 -13t93 -43.5t80 -76t55 -116t21 -157.5v-628q0 -158 -160 -158q-77 0 -117 40t-40 118v571q0 87 -45.5 134.5t-106.5 47.5q-66 0 -114 -48t-48 -134v-571q0 -158 -160 -158
q-153 0 -153 158z" />
    <glyph glyph-name="o" unicode="o" horiz-adv-x="1204" 
d="M573 1204q102 0 189 -33.5t149.5 -91.5t107 -135.5t66 -167t21.5 -184.5q0 -123 -35.5 -232.5t-101 -194t-168 -134t-228.5 -49.5q-127 0 -230 52t-168 139.5t-99.5 198t-34.5 232.5q0 120 34.5 227.5t99.5 191t168 132.5t230 49zM573 913q-69 0 -117.5 -45t-69.5 -111
t-21 -143q0 -56 12.5 -114.5t36.5 -111.5t65.5 -86.5t93.5 -33.5q69 0 118 49t70 117.5t21 145.5q0 56 -12.5 112.5t-37 107t-66 82t-93.5 31.5z" />
    <glyph glyph-name="p" unicode="p" horiz-adv-x="1173" 
d="M41 -254v1296q0 162 156 162q159 0 159 -162q119 164 308 164q62 0 121.5 -24.5t113 -75t94 -122t64.5 -171.5t24 -217q0 -122 -41.5 -237.5t-107.5 -197.5t-151 -131.5t-169 -49.5t-165 46t-119 124v-443q0 -60 -45 -92.5t-88 -32.5q-154 0 -154 164zM575 289
q64 0 107 47.5t59.5 113t16.5 142.5q0 56 -10 110t-30.5 102.5t-57.5 78.5t-85 30q-70 0 -120 -49t-71.5 -118t-21.5 -146q0 -127 55 -219t158 -92z" />
    <glyph glyph-name="q" unicode="q" horiz-adv-x="1185" 
d="M758 1053v-11q0 79 42 121.5t120 42.5t117.5 -42t39.5 -122v-1306q0 -74 -40 -113t-117 -39q-144 0 -144 146v415q-110 -168 -303 -168q-81 0 -159 45t-139 123.5t-98.5 195t-37.5 249.5q0 136 37 253.5t97.5 196t139 123.5t162.5 45q80 0 159 -40t124 -115zM553 283
q82 0 146.5 86t64.5 227q0 142 -61.5 228.5t-143.5 86.5q-62 0 -108.5 -48.5t-68.5 -120.5t-22 -154q0 -81 20.5 -148.5t65.5 -112t107 -44.5z" />
    <glyph glyph-name="r" unicode="r" horiz-adv-x="911" 
d="M53 158v866q0 164 158 164q52 0 90 -34t41 -101q27 52 109 101.5t145 49.5q114 0 169.5 -51.5t55.5 -122.5q0 -65 -46.5 -112.5t-115.5 -47.5q-40 0 -75 7q-42 6 -47 6q-62 0 -115 -45t-53 -109v-571q0 -158 -158 -158t-158 158z" />
    <glyph glyph-name="s" unicode="s" horiz-adv-x="1019" 
d="M539 254q100 0 100 74q0 33 -31.5 62t-82 52.5t-111 49t-121.5 58.5t-111.5 73t-82 99.5t-31.5 131.5q0 92 36 163t99.5 114.5t143.5 65.5t173 22q189 0 328 -72q40 -22 61 -57.5t21 -73.5q0 -55 -38.5 -96t-103.5 -41q-51 0 -149 33.5t-160 33.5q-94 0 -94 -74
q0 -25 25 -49t66 -43.5t93.5 -43.5t107.5 -48t107.5 -57.5t93.5 -71t66 -90t25 -113.5q0 -78 -27 -142t-72 -106.5t-106 -71.5t-126 -41.5t-134 -12.5q-197 0 -391 118q-64 46 -64 131q0 65 44 100.5t104 35.5q41 0 83 -17.5t74 -39t81.5 -39t103.5 -17.5z" />
    <glyph glyph-name="t" unicode="t" horiz-adv-x="817" 
d="M23 1038q0 63 37 93t106 38v80q0 156 158 156q159 0 159 -156v-80h88q86 0 125 -28.5t39 -104.5q0 -74 -37.5 -102.5t-122.5 -28.5h-92v-487q0 -71 8 -99t35 -28q170 0 170 -154q0 -75 -43.5 -114t-126.5 -39q-108 0 -179.5 29t-110.5 88t-54.5 134t-15.5 183v491
q-68 7 -105.5 36t-37.5 93z" />
    <glyph glyph-name="u" unicode="u" horiz-adv-x="1114" 
d="M352 1020l2 -490q0 -137 38.5 -187t103.5 -50q78 0 136 81.5t58 221.5v430q0 81 34.5 121.5t117.5 40.5q157 0 157 -162v-901q0 -152 -157 -152q-47 0 -83.5 32.5t-37.5 96.5v62q-64 -85 -146.5 -130.5t-168.5 -45.5q-71 0 -136.5 33t-117 93t-82.5 153.5t-31 205.5v547
q0 81 38.5 119.5t117.5 38.5q82 0 119.5 -38t37.5 -120z" />
    <glyph glyph-name="v" unicode="v" horiz-adv-x="1030" 
d="M358 1051l146 -553l141 559q52 139 168 139q71 0 112.5 -40.5t41.5 -115.5q0 -37 -13 -63l-295 -862q-41 -115 -165 -115q-117 0 -158 115l-291 866q-10 33 -10 59q0 70 45 113t113 43q126 0 165 -145z" />
    <glyph glyph-name="w" unicode="w" horiz-adv-x="1804" 
d="M385 1075l145 -586l156 578q21 60 66.5 92.5t101.5 32.5q55 0 109.5 -35.5t70.5 -95.5q40 -119 73.5 -278.5t70.5 -274.5l137 567q40 121 164 121q85 0 118 -38.5t33 -123.5q0 -35 -14 -73l2 14q-35 -129 -279 -844q-21 -64 -64 -96.5t-99 -32.5q-118 0 -164 135
q-37 110 -77 252.5t-81 263.5l-149 -520q-19 -64 -65 -98.5t-110 -34.5q-130 0 -178 137q-187 557 -238 715.5t-51 177.5q0 85 38 124.5t120 39.5q61 0 100 -29t64 -90z" />
    <glyph glyph-name="x" unicode="x" horiz-adv-x="1120" 
d="M88 285l281 329l-242 314q-37 42 -37 106q0 67 47.5 112.5t112.5 45.5q94 0 147 -80l146 -252l151 256q54 78 144 78q67 0 114 -44.5t47 -111.5q0 -61 -41 -110l-243 -303l280 -332q52 -63 52 -143q0 -150 -148 -150q-108 0 -166 94l-201 281q-27 -38 -94 -135t-104 -148
q-58 -88 -152 -88q-143 0 -143 146q0 71 49 135z" />
    <glyph glyph-name="y" unicode="y" horiz-adv-x="1058" 
d="M223 -184l109 270q-51 153 -144.5 449t-136.5 426q-14 38 -14 73q0 81 38 119.5t115 38.5q61 0 104 -33.5t62 -93.5l152 -637q27 81 82.5 324t81.5 323q40 119 164 119q157 0 157 -158q0 -44 -10 -73l-453 -1256q-46 -121 -168 -121q-151 0 -151 156q0 37 12 74z" />
    <glyph glyph-name="z" unicode="z" horiz-adv-x="1071" 
d="M217 1192h557q172 0 172 -148q0 -33 -11 -57.5t-42 -68.5l-430 -623h354q82 0 121 -30.5t39 -104.5q0 -160 -160 -160h-586q-196 0 -196 158q0 29 10.5 52t38.5 62l416 621h-283q-84 0 -122 31.5t-38 109.5q0 81 39 119.5t121 38.5z" />
    <glyph glyph-name="braceleft" unicode="{" horiz-adv-x="776" 
d="M23 731q0 35 11 60.5t34 42.5t42 25.5t52 19.5q16 0 27 27t15.5 66t6.5 66t2 43q0 53 -6 148q0 97 24 162t72 98.5t103.5 46t134.5 12.5q60 0 105.5 -45.5t45.5 -99.5q0 -141 -170 -141q-10 0 -10 -48q0 -28 3 -75t3 -68q0 -225 -94 -336q56 -60 74 -143.5t18 -196.5
q0 -50 -0.5 -83t-1 -47.5t-0.5 -18.5q0 -62 29 -62q76 -5 112.5 -38t36.5 -101q0 -143 -151 -143q-85 0 -148 17t-99.5 44t-58.5 67.5t-29 79.5t-7 89q0 35 4 96.5t4 91.5q0 164 -33 197q-29 5 -45.5 9.5t-39.5 15t-35.5 24.5t-21.5 39t-9 59z" />
    <glyph glyph-name="bar" unicode="|" horiz-adv-x="358" 
d="M6 125v1376q0 88 39 129t121 41q156 0 156 -170v-1376q0 -81 -39 -119.5t-119 -38.5q-158 0 -158 158z" />
    <glyph glyph-name="braceright" unicode="}" horiz-adv-x="776" 
d="M692 731q0 -42 -12 -70t-37.5 -43t-46 -21t-57.5 -13q-31 -31 -31 -197q0 -38 4 -99t4 -89q0 -50 -7 -89t-29 -79.5t-58.5 -67.5t-100 -44t-149.5 -17q-149 0 -149 143q0 68 36.5 101t110.5 38q33 0 33 62q0 27 -3 76t-3 73q0 111 19 195.5t75 144.5q-96 113 -96 336
q0 27 5 74t5 69q0 48 -12 48q-170 0 -170 141q0 54 45 99.5t104 45.5q79 0 135.5 -12.5t105 -46t73 -98.5t24.5 -162q-6 -95 -6 -148q0 -182 47 -202l12 -5q62 -19 95.5 -48.5t33.5 -94.5z" />
    <glyph glyph-name="asciitilde" unicode="~" horiz-adv-x="1253" 
d="M193 340q-152 0 -152 166q0 57 52.5 128.5t133.5 123t154 51.5q107 0 270 -88q84 -49 115 -49q1 0 4.5 4t9.5 12.5t11 13.5q20 26 30.5 38t32 31.5t47 27.5t57.5 8q156 0 156 -170q0 -56 -57 -126.5t-143 -120.5t-160 -50q-46 0 -92.5 13.5t-74.5 27.5t-73 41
q-9 5 -28 15t-29 15t-24.5 11.5t-26 9t-21.5 2.5q-13 0 -33 -29q-75 -106 -159 -106z" />
    <glyph glyph-name="uni00A0" unicode="&#xa0;" horiz-adv-x="1780" 
 />
    <glyph glyph-name="sterling" unicode="&#xa3;" horiz-adv-x="1388" 
d="M340 635h-135q-158 0 -158 153q0 162 158 162h31q-56 106 -56 205q0 115 69.5 208t179.5 142t235 49q95 0 187 -28.5t168 -80.5t125 -135t56 -184q0 -68 -46.5 -118t-111.5 -50q-105 0 -159 125q-10 73 -73 114.5t-140 41.5q-61 0 -104.5 -29t-43.5 -82q0 -94 47 -178
h193q156 0 156 -159q0 -77 -40 -116.5t-116 -39.5h-94q2 -25 2 -68q0 -130 -72 -248h479q158 0 158 -157q0 -158 -158 -158h-798q-166 0 -166 156q0 73 86 162q71 75 108 135.5t37 130.5q0 11 -4 47z" />
    <glyph glyph-name="currency" unicode="&#xa4;" horiz-adv-x="1658" 
d="M209 319l151 109q-20 72 -20 133q0 66 27 144l-158 112q-88 74 -88 160q0 68 46 104.5t105 36.5q60 0 125 -53l158 -133q120 69 219 69q112 0 215 -65l150 129q62 53 129 53q59 0 106 -36.5t47 -104.5q0 -47 -24.5 -89.5t-63.5 -70.5l-151 -121q41 -43 41 -164
q0 -66 -25 -118l133 -92q90 -71 90 -160q0 -68 -47 -105t-106 -37q-64 0 -127 54l-119 102q-123 -88 -250 -88q-129 0 -246 94q-9 -8 -57 -49.5t-66 -54.5q-67 -58 -131 -58q-59 0 -105 37t-46 105q0 88 88 157zM627 553q0 -89 45 -138.5t108 -49.5q64 0 110 48.5t46 139.5
q0 80 -48 127t-112 47q-62 0 -105.5 -44.5t-43.5 -129.5z" />
    <glyph glyph-name="yen" unicode="&#xa5;" horiz-adv-x="1157" 
d="M870 963h140q155 0 155 -160q0 -156 -155 -156h-277v-82h277q155 0 155 -157q0 -82 -38 -121t-117 -39h-277v-72q0 -91 -40.5 -133.5t-125.5 -42.5q-84 0 -125 43t-41 133v72h-249q-158 0 -158 158q0 159 158 159h249v82h-249q-158 0 -158 160q0 156 158 156h116
q-200 348 -215 374q-26 50 -26 97q0 79 40 120t117 41q100 0 140 -88l245 -544h15q36 65 114.5 272t118.5 272q54 88 150 88q157 0 157 -155q0 -49 -24 -90z" />
    <glyph glyph-name="brokenbar" unicode="&#xa6;" horiz-adv-x="358" 
d="M6 1067v446q0 79 45 128t113 49q70 0 114 -42t44 -118v-463q0 -158 -158 -158t-158 158zM6 158v506q0 80 44.5 128t113.5 48q71 0 114.5 -40.5t43.5 -117.5v-524q0 -158 -158 -158t-158 158z" />
    <glyph glyph-name="section" unicode="&#xa7;" horiz-adv-x="1087" 
d="M391 952q-59 20 -105 39t-98 50t-86 66t-56.5 86t-22.5 110q0 98 37 175t101 124t145 71.5t173 24.5q179 0 328 -82q40 -22 61 -61.5t21 -84.5q0 -71 -46.5 -114t-111.5 -43q-37 0 -86 22q-24 16 -72 26.5t-100 10.5q-117 0 -117 -51q0 -17 31.5 -37.5t82.5 -43.5
t112 -50t122 -62.5t112 -75.5t82.5 -93.5t31.5 -112.5q0 -93 -49.5 -143t-116.5 -50q-36 0 -60.5 10.5t-39.5 29t-28 42t-31 52t-42 56t-68.5 57t-103.5 52.5zM539 641h1l1 -1h1h1l1 -1h1l1 -1h1h1l1 -1h1h1l1 -1h1q155 -58 219 -99q137 -91 137 -248q0 -98 -37 -175
t-100.5 -123.5t-144.5 -70.5t-174 -24q-177 0 -326 79q-82 45 -82 146q0 71 46.5 114.5t109.5 43.5q34 0 86 -23q58 -35 172 -35q119 0 119 49q0 23 -59.5 55t-144 71t-169 86.5t-144 116.5t-59.5 146q0 93 50.5 143t117.5 50q48 0 79.5 -21.5t53.5 -57t46 -74t72.5 -79
t117.5 -65.5z" />
    <glyph glyph-name="dieresis" unicode="&#xa8;" horiz-adv-x="997" 
d="M25 1276q0 77 53 129.5t131 52.5q75 0 128.5 -53t53.5 -129t-53.5 -129t-128.5 -53q-78 0 -131 52.5t-53 129.5zM535 1276q0 76 52.5 129t127.5 53q78 0 130 -52.5t52 -129.5t-52 -129.5t-130 -52.5q-75 0 -127.5 53t-52.5 129z" />
    <glyph glyph-name="copyright" unicode="&#xa9;" horiz-adv-x="1832" 
d="M842 1534q170 0 315 -59t246 -162.5t158 -249t57 -313.5q0 -167 -57.5 -311t-159.5 -246t-247.5 -160t-315.5 -58q-225 0 -403 100.5t-276 278.5t-98 402t99.5 401.5t277.5 277t404 99.5zM848 164q168 0 299 76.5t201.5 209.5t70.5 300q0 169 -71.5 306t-204 216.5
t-301.5 79.5t-300 -78t-201.5 -212.5t-70.5 -301.5q0 -170 72 -305.5t204.5 -213t301.5 -77.5zM848 963q-75 0 -122.5 -57.5t-47.5 -155.5q0 -78 45.5 -138.5t112.5 -60.5q41 0 82 14q5 1 10 6q12 2 28 6l26 6.5t15 2.5q71 0 104.5 -33.5t33.5 -101.5q0 -66 -62 -119
q-80 -64 -221 -64q-103 0 -189.5 40t-144.5 107t-90.5 156.5t-32.5 188.5q0 105 37.5 197t100.5 155.5t146.5 100t174.5 36.5q86 0 197 -49q43 -19 70.5 -56t27.5 -75q0 -58 -39.5 -100.5t-97.5 -42.5q-30 0 -47 14q-71 23 -117 23z" />
    <glyph glyph-name="guillemotleft" unicode="&#xab;" horiz-adv-x="1185" 
d="M991 819l-147 -229l162 -279q14 -24 14 -53q0 -52 -53.5 -96.5t-112.5 -44.5q-85 0 -121 65l-184 299q-33 64 -33 109q0 42 33 106l184 301q46 62 123 62q164 0 164 -148q0 -47 -29 -92zM500 823l-146 -233l162 -283q12 -25 12 -49q0 -52 -53.5 -96.5t-112.5 -44.5
q-83 0 -122 65l-177 299q-36 56 -36 109q0 44 39 108l174 295q46 68 120 68q61 0 112.5 -48t51.5 -110q0 -39 -24 -80z" />
    <glyph glyph-name="logicalnot" unicode="&#xac;" horiz-adv-x="1380" 
d="M907 309v127h-692q-86 0 -127 38t-41 120q0 67 46 115.5t122 48.5h844q168 0 168 -178v-271q0 -170 -156 -170q-67 0 -115.5 47.5t-48.5 122.5z" />
    <glyph glyph-name="uni00AD" unicode="&#xad;" horiz-adv-x="1780" 
 />
    <glyph glyph-name="registered" unicode="&#xae;" horiz-adv-x="1830" 
d="M840 1548q225 0 402.5 -101t275.5 -279t98 -400q0 -168 -57 -312t-158 -246t-246 -160t-315 -58q-224 0 -402.5 100.5t-277.5 278.5t-99 401q0 167 58 311t160.5 246.5t247.5 160.5t313 58zM651 1243h252q137 0 234 -88q94 -91 94 -217q0 -163 -148 -240l47 -69
q93 -139 93 -193q0 -67 -42 -102t-112 -35q-94 0 -145 104l-142 248v-211q0 -141 -145 -141q-72 0 -105.5 34.5t-33.5 106.5v650q0 101 69 135q36 18 84 18zM889 999h-109v-139h109q42 0 66 21.5t24 50.5q0 28 -23.5 47.5t-66.5 19.5zM852 174q255 0 410 163t155 429
q0 257 -160 426.5t-417 169.5q-169 0 -301 -77.5t-203.5 -211.5t-71.5 -301q0 -168 73.5 -304t208.5 -215t306 -79z" />
    <glyph glyph-name="degree" unicode="&#xb0;" horiz-adv-x="622" 
d="M289 1642q121 0 197.5 -78.5t76.5 -195.5t-79 -195.5t-195 -78.5q-118 0 -195.5 78.5t-77.5 197.5q0 112 73.5 192t199.5 80zM289 1505q-63 0 -99 -40t-36 -97q0 -59 38.5 -98t96.5 -39q59 0 98 39.5t39 97.5t-38.5 97.5t-98.5 39.5z" />
    <glyph glyph-name="plusminus" unicode="&#xb1;" 
d="M268 1014h242v96q0 79 42 121.5t120 42.5q73 0 119.5 -42.5t46.5 -115.5v-102h241q84 0 133.5 -47.5t49.5 -118.5q0 -85 -45 -122.5t-138 -37.5h-241v-115q0 -72 -48 -115.5t-120 -43.5q-160 0 -160 159v115h-242q-83 0 -124.5 39.5t-41.5 124.5q0 86 41 124t125 38z
M276 319h816q170 0 170 -157q0 -82 -42 -121t-128 -39h-816q-170 0 -170 158q0 67 47 113t123 46z" />
    <glyph glyph-name="twosuperior" unicode="&#xb2;" horiz-adv-x="638" 
d="M20 1368q0 104 73 169t169 65q92 0 164 -61t72 -155q0 -100 -76 -202q-26 -35 -73 -96.5t-85 -112.5h164q78 0 78 -80t-78 -80h-303q-96 0 -96 78q0 30 22 61l250 336q31 42 31 88q0 28 -22.5 45t-51.5 17q-30 0 -51 -20t-21 -56q0 -31 -22 -60.5t-60 -29.5t-61 29.5
t-23 64.5z" />
    <glyph glyph-name="threesuperior" unicode="&#xb3;" horiz-adv-x="612" 
d="M252 1612q97 0 160 -65.5t63 -149.5q0 -100 -90 -160q58 -31 87.5 -81.5t29.5 -108.5q0 -93 -69 -165.5t-179 -72.5q-63 0 -116 29t-85 73q-30 41 -30 90q0 38 22 60t53 22q23 0 45.5 -13.5t32.5 -37.5q24 -59 76 -59q35 0 60.5 22.5t25.5 61.5q0 35 -17.5 64.5
t-50.5 35.5h-32q-88 0 -88 70q0 37 21.5 52t66.5 15q18 0 28 2q20 6 32.5 33t12.5 55q0 30 -16.5 49t-46.5 19q-9 0 -16.5 -1.5t-13.5 -3t-11 -5t-8.5 -6t-6.5 -7t-4.5 -7t-3.5 -7t-2.5 -6t-1.5 -5.5v-3q0 -16 -15 -35.5t-48 -19.5q-84 0 -84 73q0 76 63 134.5t156 58.5z
" />
    <glyph glyph-name="mu" unicode="&#xb5;" horiz-adv-x="1101" 
d="M35 -270v1304q0 82 38.5 121t119.5 39q82 0 120.5 -39t38.5 -121v-598q0 -56 37.5 -92.5t93.5 -36.5q80 0 129.5 59t49.5 146v522q0 82 39 121t122 39q160 0 160 -160v-864q0 -170 -160 -170q-47 0 -84.5 30.5t-40.5 88.5q-20 -59 -71 -92t-119 -33q-54 0 -96 33.5
t-60 85.5v-383q0 -82 -39.5 -121t-122.5 -39q-155 0 -155 160z" />
    <glyph glyph-name="paragraph" unicode="&#xb6;" horiz-adv-x="1171" 
d="M393 154v577q-166 25 -269.5 129t-103.5 252q0 213 145 328.5t413 115.5h479q61 -4 104 -48t43 -103q0 -62 -43 -106.5t-104 -45.5v-1122q0 -61 -37 -97t-88 -36q-49 0 -87 35.5t-38 101.5v1122h-158v-1116q0 -68 -37 -106.5t-88 -38.5q-54 0 -92.5 41.5t-38.5 116.5z
" />
    <glyph glyph-name="periodcentered" unicode="&#xb7;" horiz-adv-x="428" 
d="M8 729q0 75 53.5 128.5t128.5 53.5q78 0 131.5 -53.5t53.5 -128.5t-53.5 -128.5t-131.5 -53.5q-75 0 -128.5 53.5t-53.5 128.5z" />
    <glyph glyph-name="guillemotright" unicode="&#xbb;" horiz-adv-x="1075" 
d="M545 319l153 273q-22 36 -47 74t-56 84.5t-48 72.5q-29 48 -29 99q0 145 156 145q95 0 133 -72l184 -297q35 -61 35 -108q0 -55 -35 -111l-184 -297q-38 -63 -131 -63q-158 0 -158 129q0 44 27 71zM49 315l162 275l-164 274l2 -6q-22 31 -22 70q0 50 50.5 94.5
t112.5 44.5q85 0 129 -74l175 -295q38 -65 38 -108q0 -60 -36 -111l-177 -295q-38 -65 -126 -65q-166 0 -166 131q0 32 22 65z" />
    <glyph glyph-name="onehalf" unicode="&#xbd;" horiz-adv-x="2013" 
d="M449 188l491 1297q52 104 143 104q53 0 91 -39t38 -102q0 -40 -18 -86l-516 -1276q-43 -92 -123 -92q-48 0 -83.5 37t-35.5 94q0 26 13 63zM205 598v745q-52 -18 -84 -18q-49 0 -83 31.5t-34 81.5q0 42 25.5 76t76.5 47l226 61q40 0 68 -21t38 -51q13 -16 13 -94v-858
q0 -56 -34 -91.5t-89 -35.5t-89 35.5t-34 91.5zM1171 831q0 103 52.5 185t134.5 124t174 42q89 0 169 -39.5t131.5 -115.5t51.5 -171q0 -72 -29.5 -152t-80.5 -149q-56 -74 -128 -168t-112 -147h248q116 0 116 -119q0 -121 -118 -121h-455q-141 0 -141 119q0 42 33 90
l372 506q47 59 47 131q0 42 -32.5 67t-75.5 25q-45 0 -78 -29.5t-33 -83.5q0 -48 -32.5 -91.5t-88.5 -43.5q-58 0 -91.5 44.5t-33.5 96.5z" />
    <glyph glyph-name="florin" unicode="&#x192;" horiz-adv-x="768" 
d="M498 891v-973q-4 -81 -40.5 -148.5t-92.5 -110.5t-123.5 -66t-137.5 -23q-84 0 -128 40.5t-44 115.5q0 67 41.5 99t89.5 32q50 0 85.5 38.5t35.5 88.5v909q-82 2 -121.5 32.5t-39.5 104.5q0 77 40 109t123 32v140q4 81 40.5 148.5t93 110.5t124.5 66t138 23
q84 0 128 -40.5t44 -115.5q0 -67 -41.5 -99t-89.5 -32q-50 0 -82.5 -38t-32.5 -89v-74q3 0 6.5 1.5t7.5 1.5q87 0 127.5 -32t40.5 -108q0 -78 -40 -110.5t-128 -32.5h-24z" />
    <glyph glyph-name="tonos" unicode="&#x384;" horiz-adv-x="704" 
d="M442 1358l-123 -277q-12 -28 -20 -43t-24.5 -35.5t-41.5 -30t-59 -9.5q-81 0 -120.5 42t-39.5 111q0 12 5.5 36t13.5 36l119 278q47 107 149 107q77 0 115.5 -40.5t38.5 -115.5q0 -24 -13 -59z" />
    <glyph glyph-name="dieresistonos" unicode="&#x385;" horiz-adv-x="1316" 
d="M35 1276q0 77 52 129.5t130 52.5q75 0 127.5 -53t52.5 -129t-52.5 -129t-127.5 -53q-78 0 -130 52.5t-52 129.5zM887 1276q0 77 53 129.5t131 52.5q75 0 128.5 -53t53.5 -129t-53.5 -129t-128.5 -53q-78 0 -131 52.5t-53 129.5zM895 1483l-123 -275q-11 -25 -20.5 -41.5
t-26.5 -36.5t-42 -30t-58 -10q-77 0 -120.5 43t-43.5 110q0 12 5 36t13 36l-2 -6l121 286q21 46 61 76.5t93 30.5q76 0 116.5 -42t40.5 -116q0 -8 -2.5 -18.5t-6.5 -23.5t-5 -19z" />
    <glyph glyph-name="Alphatonos" unicode="&#x386;" horiz-adv-x="1421" 
d="M811 1026l-147 -405h290q-26 76 -65 183.5t-78 221.5zM1149 104l-72 185h-522q-11 -29 -29.5 -81.5t-25.5 -72.5q-46 -135 -174 -135q-78 0 -117 46.5t-39 115.5q0 27 12 67l430 1217q53 145 199 145t199 -145q211 -577 317.5 -875t122.5 -348t16 -63q0 -71 -42 -115.5
t-117 -44.5q-117 0 -158 104zM432 1358l-123 -277q-12 -28 -20 -43t-24.5 -35.5t-41.5 -30t-59 -9.5q-81 0 -120.5 42t-39.5 111q0 12 5.5 36t13.5 36l118 278q47 107 150 107q77 0 115 -40.5t38 -115.5q0 -27 -12 -59z" />
    <glyph glyph-name="Epsilontonos" unicode="&#x388;" horiz-adv-x="1576" 
d="M565 180v1233q0 178 172 178h578q84 0 124 -40t40 -124q0 -163 -164 -163h-422v-277h330q163 0 163 -166q0 -162 -163 -162h-330v-331h436q176 0 176 -164t-176 -164h-592q-47 0 -76.5 5.5t-49.5 16.5t-29.5 33.5t-13 50.5t-3.5 74zM412 1358l-123 -277q-12 -28 -20 -43
t-25 -35.5t-42 -30t-59 -9.5q-81 0 -120 42t-39 111q0 12 5 36t13 36l119 278q47 107 149 107q77 0 115.5 -40.5t38.5 -115.5q0 -27 -12 -59z" />
    <glyph glyph-name="Etatonos" unicode="&#x389;" horiz-adv-x="1929" 
d="M600 164v1266q0 165 160 165q85 0 125.5 -40t40.5 -125v-457h594v457q0 85 40 125t123 40q166 0 166 -165v-1266q0 -164 -166 -164q-163 0 -163 164v479h-594v-479q0 -164 -164 -164q-162 0 -162 164zM432 1358l-123 -277q-12 -28 -20 -43t-24.5 -35.5t-41.5 -30
t-59 -9.5q-81 0 -120.5 42t-39.5 111q0 12 5.5 36t13.5 36l118 278q47 107 150 107q77 0 115 -40.5t38 -115.5q0 -27 -12 -59z" />
    <glyph glyph-name="Iotatonos" unicode="&#x38a;" horiz-adv-x="952" 
d="M545 166v1264q0 165 164 165q84 0 124.5 -40.5t40.5 -124.5v-1264q0 -166 -165 -166q-164 0 -164 166zM412 1358l-123 -277q-12 -28 -20 -43t-25 -35.5t-42 -30t-59 -9.5q-81 0 -120 42t-39 111q0 12 5 36t13 36l119 278q47 107 149 107q77 0 115.5 -40.5t38.5 -115.5
q0 -27 -12 -59z" />
    <glyph glyph-name="Omicrontonos" unicode="&#x38c;" horiz-adv-x="1863" 
d="M1085 1638q137 0 254 -46.5t199 -126.5t140 -186.5t86 -226t28 -245.5t-28 -245t-86 -224.5t-140 -184.5t-199 -125t-254 -46q-135 0 -250 46.5t-196 126t-138 186t-84.5 226.5t-27.5 246q0 125 27 244t84.5 224.5t138 184.5t196 125.5t250.5 46.5zM1085 1307
q-117 0 -200.5 -72t-121.5 -180.5t-38 -237.5q0 -98 23.5 -188t67 -162.5t115 -116t159.5 -43.5q72 0 133 27.5t103.5 74.5t72 110.5t43.5 135t14 148.5q0 97 -23.5 186t-68 161t-117 114.5t-162.5 42.5zM420 1358l-123 -277q-12 -28 -20 -43t-24.5 -35.5t-41.5 -30
t-59 -9.5q-81 0 -120.5 42t-39.5 111q0 12 5 36t13 36l119 278q47 107 150 107q77 0 115 -40.5t38 -115.5q0 -27 -12 -59z" />
    <glyph glyph-name="Upsilontonos" unicode="&#x38e;" horiz-adv-x="1746" 
d="M924 176v473q-56 100 -174 343t-175 345q-26 50 -26 97q0 79 40.5 120t117.5 41q99 0 139 -88l252 -559q39 65 120.5 279.5t120.5 279.5q54 88 150 88q158 0 158 -155q0 -47 -25 -90l-367 -705v-469q0 -91 -40 -133.5t-125 -42.5q-84 0 -125 43t-41 133zM424 1358
l-123 -277q-12 -28 -20 -43t-24.5 -35.5t-41.5 -30t-59 -9.5q-81 0 -120.5 42t-39.5 111q0 12 5 36t13 36l119 278q47 107 150 107q77 0 115 -40.5t38 -115.5q0 -27 -12 -59z" />
    <glyph glyph-name="Omegatonos" unicode="&#x38f;" horiz-adv-x="1849" 
d="M696 328h920q80 0 120 -43.5t40 -120.5q0 -164 -160 -164h-920q-159 0 -159 164q0 77 39.5 120.5t119.5 43.5zM1151 1638q123 0 228.5 -33.5t180 -91t127 -134t78 -162.5t25.5 -177q0 -90 -25 -175.5t-77 -161t-126.5 -132t-180 -89.5t-230.5 -33q-122 0 -225.5 33
t-176.5 89.5t-124.5 132t-76 161t-24.5 175.5q0 91 25 177t76.5 162.5t124.5 134t176.5 91t224.5 33.5zM1155 1315q-142 0 -222.5 -82t-80.5 -193q0 -110 80 -189t225 -79q146 0 226.5 79t80.5 187q0 111 -82.5 194t-226.5 83zM432 1358l-123 -277q-12 -28 -20 -43
t-24.5 -35.5t-41.5 -30t-59 -9.5q-81 0 -120.5 42t-39.5 111q0 12 5.5 36t13.5 36l118 278q47 107 150 107q77 0 115 -40.5t38 -115.5q0 -27 -12 -59z" />
    <glyph glyph-name="iotadieresistonos" unicode="&#x390;" horiz-adv-x="552" 
d="M401 158v886q0 160 -163 160q-160 0 -160 -160v-886q0 -78 41 -118t119 -40q80 0 121.5 40t41.5 118zM-346 1507q0 77 52 130t130 53q75 0 127.5 -53.5t52.5 -129.5t-52.5 -129t-127.5 -53q-78 0 -130 52.5t-52 129.5zM506 1507q0 77 53 130t131 53q75 0 128.5 -53.5
t53.5 -129.5t-53.5 -129t-128.5 -53q-78 0 -131 52.5t-53 129.5zM514 1714l-123 -274q-11 -26 -20.5 -42t-26.5 -36.5t-42 -30.5t-58 -10q-77 0 -120.5 43.5t-43.5 110.5q0 12 5 35.5t13 35.5l-2 -6l121 287q21 45 61 75.5t93 30.5q76 0 116.5 -41.5t40.5 -115.5
q0 -8 -2.5 -19t-6.5 -24t-5 -19z" />
    <glyph glyph-name="Alpha" unicode="&#x391;" horiz-adv-x="1392" 
d="M676 1026l-148 -405h291q-26 76 -65 183.5t-78 221.5zM1014 104l-72 185h-522q-11 -29 -29.5 -81.5t-25.5 -72.5q-47 -135 -175 -135q-78 0 -116.5 46.5t-38.5 115.5q0 27 12 67l430 1217q53 145 199 145q145 0 198 -145q212 -580 318 -875.5t122.5 -346.5t16.5 -64
q0 -71 -42.5 -115.5t-117.5 -44.5q-116 0 -157 104z" />
    <glyph glyph-name="Beta" unicode="&#x392;" horiz-adv-x="1107" 
d="M27 186v1221q0 184 172 184h290q62 0 128 -14t133 -47.5t119.5 -81t86 -122t33.5 -163.5q0 -51 -29.5 -114t-75.5 -110t-89 -52q81 -12 152.5 -77.5t111 -153t39.5 -169.5q0 -140 -69 -252.5t-182 -173.5t-245 -61h-371q-95 0 -137 31q-67 47 -67 155zM356 707v-379h228
q90 0 141 51.5t51 122.5q0 83 -67 144t-191 61h-162zM356 963h158q78 0 120 41.5t42 101.5q0 64 -47 111t-131 47h-142v-301z" />
    <glyph glyph-name="Gamma" unicode="&#x393;" horiz-adv-x="1009" 
d="M23 166v1243q0 184 172 184h596q76 0 123 -49t47 -117q0 -161 -170 -161h-439v-1100q0 -166 -168 -166q-161 0 -161 166z" />
    <glyph glyph-name="uni0394" unicode="&#x394;" horiz-adv-x="1429" 
d="M698 1032l-249 -692h514zM1171 0h-952q-94 0 -138 34.5t-44 106.5q0 31 14 74l-2 -6q67 183 143 390.5t168 457.5t144 391q53 149 194 149q154 0 199 -147q119 -318 471 -1239q12 -41 12 -72q0 -139 -209 -139z" />
    <glyph glyph-name="Epsilon" unicode="&#x395;" horiz-adv-x="993" 
d="M23 180v1233q0 178 172 178h577q84 0 124 -40t40 -124q0 -163 -164 -163h-422v-277h330q164 0 164 -166q0 -162 -164 -162h-330v-331h436q177 0 177 -164t-177 -164h-591q-47 0 -76.5 5.5t-49.5 16.5t-29.5 33.5t-13 50.5t-3.5 74z" />
    <glyph glyph-name="Zeta" unicode="&#x396;" horiz-adv-x="1224" 
d="M66 299l641 967h-484q-166 0 -166 161q0 166 166 166h762q97 0 144 -43t47 -112q0 -62 -54 -146l-641 -964h551q83 0 125.5 -41t42.5 -119q0 -168 -168 -168h-842q-159 0 -159 174q0 64 35 125z" />
    <glyph glyph-name="Eta" unicode="&#x397;" horiz-adv-x="1390" 
d="M35 164v1266q0 165 160 165q85 0 125 -40t40 -125v-457h594v457q0 84 40 124.5t124 40.5q166 0 166 -165v-1266q0 -164 -166 -164q-164 0 -164 164v479h-594v-479q0 -164 -163 -164q-162 0 -162 164z" />
    <glyph glyph-name="Theta" unicode="&#x398;" horiz-adv-x="1540" 
d="M817 649h-135q-83 0 -124.5 43.5t-41.5 122.5t41.5 122.5t124.5 43.5h135q83 0 124.5 -44t41.5 -124q0 -164 -166 -164zM735 1638q137 0 254 -46.5t199 -126.5t140 -186.5t86 -226t28 -245.5t-28 -245t-86 -224.5t-140 -184.5t-199 -125t-254 -46q-135 0 -250 46.5
t-196 126t-138 186t-84.5 226.5t-27.5 246q0 125 27 244t84.5 224.5t138 184.5t196 125.5t250.5 46.5zM737 1307q-117 0 -200.5 -72t-121.5 -180.5t-38 -237.5q0 -98 23 -188t67 -162.5t115 -116t159 -43.5q89 0 160.5 41.5t115.5 112t67.5 158.5t23.5 184q0 97 -23.5 186
t-68 161t-117 114.5t-162.5 42.5z" />
    <glyph glyph-name="Iota" unicode="&#x399;" horiz-adv-x="417" 
d="M2 166v1264q0 165 164 165q166 0 166 -165v-1264q0 -166 -166 -166q-164 0 -164 166z" />
    <glyph glyph-name="Kappa" unicode="&#x39a;" horiz-adv-x="1210" 
d="M31 156v1288q0 151 162 151q165 0 165 -151v-447l498 547q37 47 113 47q66 0 119 -52.5t53 -117.5q0 -72 -47 -114q-63 -70 -174 -189t-181 -196l398 -650q41 -43 41 -108q0 -72 -60 -119t-106 -47q-48 0 -78 18t-66 58l-368 600l-142 -152v-366q0 -156 -161 -156
q-166 0 -166 156z" />
    <glyph glyph-name="Lambda" unicode="&#x39b;" horiz-adv-x="1415" 
d="M1030 137l-336 893l-332 -909q-23 -62 -59 -91.5t-98 -29.5q-67 0 -117.5 44t-50.5 112q0 19 8 51l449 1241q56 149 198 149q149 0 195 -149l461 -1217q16 -50 16 -75q0 -74 -46.5 -115t-117.5 -41q-70 0 -106 31.5t-64 105.5z" />
    <glyph glyph-name="Mu" unicode="&#x39c;" horiz-adv-x="1888" 
d="M678 1405l221 -733l225 735q29 92 88 140t140 48q87 0 141.5 -56t69.5 -163l176 -1196v-8q0 -1 1 -3t1 -3q0 -75 -45.5 -119.5t-116.5 -44.5q-79 0 -120 39t-52 119l-104 776q-43 -130 -122.5 -400.5t-117.5 -388.5q-23 -72 -67.5 -109.5t-100.5 -37.5q-127 0 -170 147
l-217 793l-131 -778q-13 -79 -52.5 -119.5t-115.5 -40.5t-118 40t-42 120q0 29 2 45l189 1171q38 221 213 221q78 0 137 -50.5t88 -143.5z" />
    <glyph glyph-name="Nu" unicode="&#x39d;" horiz-adv-x="1372" 
d="M33 168v1249q0 178 162 178q107 0 180 -108l563 -838v778q0 166 162 166q166 0 166 -166v-1249q0 -178 -164 -178q-103 0 -172 96l-570 836v-764q0 -168 -163 -168q-164 0 -164 168z" />
    <glyph glyph-name="Xi" unicode="&#x39e;" horiz-adv-x="1331" 
d="M217 1593h842q85 0 125.5 -40.5t40.5 -125.5q0 -161 -166 -161h-842q-164 0 -164 161q0 85 40 125.5t124 40.5zM350 987h561q166 0 166 -166q0 -162 -166 -162h-561q-164 0 -164 166q0 162 164 162zM203 334h874q174 0 174 -166q0 -164 -174 -164h-874q-90 0 -134 40
t-44 124q0 166 178 166z" />
    <glyph glyph-name="Omicron" unicode="&#x39f;" horiz-adv-x="1542" 
d="M735 1638q137 0 254 -46.5t199 -126.5t140 -186.5t86 -226t28 -245.5t-28 -245t-86 -224.5t-140 -184.5t-199 -125t-254 -46q-135 0 -250 46.5t-196 126t-138 186t-84.5 226.5t-27.5 246q0 125 27 244t84.5 224.5t138 184.5t196 125.5t250.5 46.5zM735 1307
q-117 0 -200.5 -72t-121.5 -180.5t-38 -237.5q0 -98 23 -188t67 -162.5t115 -116t159 -43.5q72 0 133 27.5t103.5 74.5t72.5 110.5t44 135t14 148.5q0 97 -23.5 186t-68 161t-117 114.5t-162.5 42.5z" />
    <glyph glyph-name="Pi" unicode="&#x3a0;" horiz-adv-x="1353" 
d="M195 1597h901q65 0 115.5 -50.5t50.5 -116.5v-1264q0 -85 -40.5 -125.5t-123.5 -40.5t-122.5 40.5t-39.5 125.5v1100h-576v-1100q0 -166 -167 -166q-160 0 -160 166v1264q0 167 162 167z" />
    <glyph glyph-name="Rho" unicode="&#x3a1;" horiz-adv-x="1087" 
d="M27 166v1257q0 170 172 170h346q236 0 387 -146t151 -378q0 -145 -69 -264t-189.5 -186.5t-267.5 -67.5h-203v-385q0 -166 -164 -166q-83 0 -123 40.5t-40 125.5zM518 1266h-164v-387h195q91 0 146 51.5t55 140.5q0 93 -60 144t-172 51z" />
    <glyph glyph-name="Sigma" unicode="&#x3a3;" horiz-adv-x="1239" 
d="M522 1264l217 -330q35 -50 35 -105q0 -47 -31 -90l-268 -411h516q166 0 166 -166q0 -162 -166 -162h-801q-159 0 -159 174q0 69 35 125l344 532l-304 461q-51 77 -51 144q0 157 193 157h719q166 0 166 -166q0 -163 -166 -163h-445z" />
    <glyph glyph-name="Tau" unicode="&#x3a4;" horiz-adv-x="1077" 
d="M381 174v1092h-186q-170 0 -170 161q0 166 170 166h702q166 0 166 -166q0 -161 -166 -161h-188v-1092q0 -174 -160 -174q-168 0 -168 174z" />
    <glyph glyph-name="Upsilon" unicode="&#x3a5;" horiz-adv-x="1157" 
d="M401 176v473q-56 100 -173.5 343t-174.5 345q-26 50 -26 97q0 79 40 120t117 41q100 0 140 -88l251 -559q39 65 121 279.5t121 279.5q54 88 150 88q157 0 157 -155q0 -49 -24 -90l-367 -705v-469q0 -91 -40.5 -133.5t-125.5 -42.5q-84 0 -125 43t-41 133z" />
    <glyph glyph-name="Phi" unicode="&#x3a6;" horiz-adv-x="1554" 
d="M604 1460v15q0 85 40.5 125t125.5 40q83 0 124.5 -37t41.5 -94v-49q114 -14 216 -63t178.5 -124.5t121.5 -180.5t45 -224q0 -117 -46.5 -220t-125 -176.5t-179.5 -122t-212 -64.5v-117q0 -168 -164 -168q-166 0 -166 168v115q-158 19 -284.5 95t-202.5 204t-76 286
q0 118 46 222.5t124 179.5t179.5 124.5t213.5 65.5zM604 588v571q-103 -22 -172.5 -104.5t-69.5 -186.5q0 -98 70.5 -176t171.5 -104zM934 1157v-571q103 22 170 100t67 182q0 102 -68 184t-169 105z" />
    <glyph glyph-name="Chi" unicode="&#x3a7;" horiz-adv-x="1359" 
d="M70 264l387 600l-334 467q-33 47 -33 103q0 69 48 114t114 45q85 0 139 -71l262 -365q41 65 118.5 182.5t113.5 173.5q50 80 139 80q64 0 113 -47.5t49 -115.5q0 -47 -31 -97l-303 -446l405 -621q41 -62 41 -121q0 -147 -147 -147q-88 0 -152 82l-344 504l-319 -500
q-54 -86 -154 -86q-147 0 -147 149q0 61 35 117z" />
    <glyph glyph-name="Psi" unicode="&#x3a8;" horiz-adv-x="1558" 
d="M920 1475v-863q112 22 167.5 118t55.5 241v420q0 165 166 165t166 -165v-445q0 -272 -150 -441.5t-405 -197.5v-143q0 -164 -164 -164q-162 0 -162 164v145q-255 33 -405 201t-150 436v445q0 163 168 163q160 0 160 -163v-420q0 -129 61 -227.5t166 -127.5v859
q0 84 40 124.5t122 40.5q85 0 124.5 -40t39.5 -125z" />
    <glyph glyph-name="uni03A9" unicode="&#x3a9;" horiz-adv-x="1505" 
d="M260 328h920q80 0 119.5 -43.5t39.5 -120.5q0 -164 -159 -164h-920q-160 0 -160 164q0 77 40 120.5t120 43.5zM715 1638q123 0 228.5 -33.5t180 -91t127 -134t78 -162.5t25.5 -177q0 -90 -25 -175.5t-77 -161t-126.5 -132t-180 -89.5t-230.5 -33q-122 0 -225.5 33
t-176.5 89.5t-124.5 132t-76 161t-24.5 175.5q0 91 25 177t76.5 162.5t124.5 134t176.5 91t224.5 33.5zM719 1315q-142 0 -222.5 -82t-80.5 -193q0 -110 80 -189t225 -79q146 0 226.5 79t80.5 187q0 111 -82.5 194t-226.5 83z" />
    <glyph glyph-name="Iotadieresis" unicode="&#x3aa;" horiz-adv-x="567" 
d="M94 1430v-1264q0 -166 164 -166q166 0 166 166v1264q0 165 -166 165q-164 0 -164 -165zM-178 1827q0 77 53 129.5t131 52.5q75 0 128.5 -53t53.5 -129t-53.5 -129t-128.5 -53q-78 0 -131 52.5t-53 129.5zM332 1827q0 76 52.5 129t127.5 53q78 0 130 -52.5t52 -129.5
t-52 -129.5t-130 -52.5q-75 0 -127.5 53t-52.5 129z" />
    <glyph glyph-name="Upsilondieresis" unicode="&#x3ab;" horiz-adv-x="1277" 
d="M453 649v-473q0 -90 40.5 -133t124.5 -43q85 0 125.5 42.5t40.5 133.5v469l367 705q25 43 25 90q0 155 -158 155q-96 0 -150 -88q-39 -65 -120.5 -279.5t-120.5 -279.5l-252 559q-40 88 -139 88q-77 0 -117.5 -41t-40.5 -120q0 -47 26 -97q57 -102 175 -345t174 -343z
M176 1827q0 77 53 129.5t131 52.5q75 0 129 -53t54 -129t-54 -129t-129 -53q-78 0 -131 52.5t-53 129.5zM686 1827q0 76 52.5 129t127.5 53q78 0 130.5 -52.5t52.5 -129.5t-52.5 -129.5t-130.5 -52.5q-75 0 -127.5 53t-52.5 129z" />
    <glyph glyph-name="alphatonos" unicode="&#x3ac;" horiz-adv-x="1187" 
d="M442 1208q79 0 156.5 -38t124.5 -111q4 72 46.5 109.5t117.5 37.5q79 0 119.5 -42t40.5 -122v-917q0 -74 -40.5 -113t-119.5 -39q-25 0 -47 5t-46 19t-38.5 45t-14.5 77v41q-61 -90 -139 -136.5t-162 -46.5q-82 0 -160.5 45t-139.5 124t-98.5 195t-37.5 249
q0 136 37 253.5t98 196t140 123.5t163 45zM520 283q82 0 145.5 85.5t63.5 227.5t-61.5 228.5t-141.5 86.5q-61 0 -106.5 -48.5t-67.5 -120.5t-22 -154q0 -126 50 -215.5t140 -89.5zM840 1716l-123 -276q-12 -28 -20 -43t-25 -36t-42 -30.5t-59 -9.5q-81 0 -120 42.5
t-39 111.5q0 12 5 35.5t13 35.5l119 279q46 106 149 106q77 0 115.5 -40t38.5 -115q0 -28 -12 -60z" />
    <glyph glyph-name="epsilontonos" unicode="&#x3ad;" horiz-adv-x="974" 
d="M498 -31q-205 0 -342.5 109.5t-137.5 251.5q0 81 58.5 157.5t169.5 128.5q-89 49 -133.5 110.5t-44.5 125.5q0 66 33.5 129t92 112t145 79t185.5 30q48 0 93 -4t95 -16.5t86.5 -32t60.5 -53.5t24 -78q0 -61 -37.5 -92t-104.5 -31q-27 0 -90 10q-45 10 -112 10
q-78 0 -120 -30.5t-42 -71.5q0 -32 25.5 -55t68.5 -23h111q90 0 133 -29.5t43 -91.5q0 -116 -172 -116h-111q-57 -7 -90 -43t-33 -80q0 -48 40 -82.5t112 -34.5q46 0 145 23q70 18 123 18q74 0 111 -33t37 -88q0 -52 -31 -92t-75.5 -61.5t-106 -34.5t-110 -17t-99.5 -4z
M784 1716l-122 -276q-12 -28 -20 -43t-25 -36t-42 -30.5t-59 -9.5q-81 0 -120.5 42.5t-39.5 111.5q0 12 5.5 35.5t13.5 35.5l119 279q46 106 149 106q77 0 115.5 -40t38.5 -115q0 -25 -13 -60z" />
    <glyph glyph-name="etatonos" unicode="&#x3ae;" horiz-adv-x="1067" 
d="M35 158v864q0 69 40.5 116.5t114.5 47.5t117 -42.5t45 -94.5q129 143 283 143q63 0 121.5 -22t111 -67.5t84 -127t31.5 -189.5v-1058q0 -158 -162 -158q-159 0 -159 158v1001q0 87 -44.5 134.5t-105.5 47.5q-65 0 -112.5 -48t-47.5 -134v-571q0 -158 -162 -158
q-155 0 -155 158zM764 1716l-123 -276q-12 -29 -20 -43.5t-24.5 -35.5t-41.5 -30.5t-59 -9.5q-81 0 -120.5 42.5t-39.5 111.5q0 12 5 35.5t13 35.5l119 279q46 106 150 106q153 0 153 -155q0 -28 -12 -60z" />
    <glyph glyph-name="iotatonos" unicode="&#x3af;" horiz-adv-x="475" 
d="M350 1044v-886q0 -78 -42 -118t-122 -40q-159 0 -159 158v886q0 160 159 160q164 0 164 -160zM463 1716l-123 -276q-12 -29 -20 -43.5t-24.5 -35.5t-41.5 -30.5t-59 -9.5q-81 0 -120.5 42.5t-39.5 111.5q0 12 5 35.5t13 35.5l119 279q46 106 150 106q153 0 153 -155
q0 -28 -12 -60z" />
    <glyph glyph-name="upsilondieresistonos" unicode="&#x3b0;" horiz-adv-x="1073" 
d="M43 1034v-612q0 -127 65.5 -230t173 -159t232.5 -56q124 0 233 56.5t176.5 160t67.5 228.5v612q0 160 -162 160q-159 0 -159 -160v-569q0 -71 -44.5 -119.5t-111.5 -48.5t-110.5 48.5t-43.5 119.5v569q0 82 -39 121t-122 39q-156 0 -156 -160zM-59 1507q0 77 52 130
t130 53q75 0 127.5 -53.5t52.5 -129.5t-52.5 -129t-127.5 -53q-78 0 -130 52.5t-52 129.5zM793 1507q0 77 53 130t131 53q75 0 128.5 -53.5t53.5 -129.5t-53.5 -129t-128.5 -53q-78 0 -131 52.5t-53 129.5zM801 1714l-123 -274q-11 -25 -20.5 -41.5t-27 -37t-42.5 -30.5
t-58 -10q-77 0 -120 43.5t-43 110.5q0 12 5 35.5t13 35.5l-2 -6l121 287q21 46 60.5 76t92.5 30q76 0 117 -41.5t41 -115.5q0 -8 -2.5 -19t-6.5 -24t-5 -19z" />
    <glyph glyph-name="alpha" unicode="&#x3b1;" horiz-adv-x="1187" 
d="M442 1208q79 0 156.5 -38t124.5 -111q4 72 46.5 109.5t117.5 37.5q79 0 119.5 -42t40.5 -122v-917q0 -74 -40.5 -113t-119.5 -39q-25 0 -47 5t-46 19t-38.5 45t-14.5 77v41q-61 -90 -139 -136.5t-162 -46.5q-82 0 -160.5 45t-139.5 124t-98.5 195t-37.5 249
q0 136 37 253.5t98 196t140 123.5t163 45zM520 283q82 0 145.5 85.5t63.5 227.5t-61.5 228.5t-141.5 86.5q-61 0 -106.5 -48.5t-67.5 -120.5t-22 -154q0 -126 50 -215.5t140 -89.5z" />
    <glyph glyph-name="beta" unicode="&#x3b2;" horiz-adv-x="1144" 
d="M358 111v-361q0 -88 -39 -129t-122 -41q-160 0 -160 168v1344q0 106 29.5 194t87 153t148 101.5t206.5 36.5q92 0 174 -33t139 -86.5t90 -123t33 -142.5q0 -78 -41 -154.5t-119 -119.5q85 -34 147 -107.5t90 -157.5t28 -168q0 -209 -125.5 -351t-315.5 -142
q-145 0 -250 119zM358 1022v-262q0 -26 -1 -116.5t-1 -172.5q0 -78 50 -125t129 -47q91 0 141.5 64t50.5 155q0 75 -41 143t-111 99q-6 0 -15.5 1t-10.5 1q-6 2 -45 2q-36 0 -57 33.5t-21 79.5q0 45 22 79t64 37h45q29 13 46.5 48.5t17.5 74.5q0 59 -30.5 103.5t-84.5 44.5
q-86 0 -117 -63t-31 -179z" />
    <glyph glyph-name="gamma" unicode="&#x3b3;" horiz-adv-x="1081" 
d="M373 -246v357l-328 899q-8 19 -8 59q0 62 51 107t111 45q69 0 116.5 -38.5t53.5 -97.5q25 -94 82.5 -297t85.5 -307l168 609q20 56 60 93.5t101 37.5q62 0 114 -47.5t52 -114.5q0 -30 -10 -55l-41 -113q-239 -633 -281 -778v-361q0 -88 -43 -132t-122 -44
q-162 0 -162 178z" />
    <glyph glyph-name="delta" unicode="&#x3b4;" horiz-adv-x="1173" 
d="M565 784q-93 0 -149 -73t-56 -166q0 -106 56 -182t151 -76q98 0 153.5 64t55.5 167q0 113 -57 189.5t-154 76.5zM997 1372q0 -50 -33.5 -78t-91.5 -28q-34 0 -96 20q-65 25 -137 25q-62 0 -102.5 -22t-40.5 -72q0 -36 44.5 -72.5t118.5 -63.5q435 -146 435 -551
q0 -152 -59.5 -274.5t-180.5 -198t-285 -75.5q-123 0 -225 46t-167.5 123.5t-101.5 178.5t-36 213q0 64 20.5 130.5t60.5 131t109 116.5t156 76q-93 54 -146 128t-53 145q0 129 119 221t322 92q104 0 186 -22.5t133 -71t51 -117.5z" />
    <glyph glyph-name="epsilon" unicode="&#x3b5;" horiz-adv-x="974" 
d="M498 -31q-205 0 -342.5 109.5t-137.5 251.5q0 81 58.5 157.5t169.5 128.5q-89 49 -133.5 110.5t-44.5 125.5q0 66 33.5 129t92 112t145 79t185.5 30q48 0 93 -4t95 -16.5t86.5 -32t60.5 -53.5t24 -78q0 -61 -37.5 -92t-104.5 -31q-27 0 -90 10q-45 10 -112 10
q-78 0 -120 -30.5t-42 -71.5q0 -32 25.5 -55t68.5 -23h111q90 0 133 -29.5t43 -91.5q0 -116 -172 -116h-111q-57 -7 -90 -43t-33 -80q0 -48 40 -82.5t112 -34.5q46 0 145 23q70 18 123 18q74 0 111 -33t37 -88q0 -52 -31 -92t-75.5 -61.5t-106 -34.5t-110 -17t-99.5 -4z" />
    <glyph glyph-name="zeta" unicode="&#x3b6;" horiz-adv-x="1101" 
d="M825 -352q-60 0 -104.5 47.5t-44.5 103.5q0 32 8 72t8 51q0 22 -16 38t-60 32q-21 9 -51 18q-36 12 -57 19.5t-62 25.5t-67.5 33.5t-64.5 42.5t-63 55.5t-53 69.5t-44.5 86t-27.5 104t-11 125q0 178 115 345t352 307h-271q-76 0 -127 41t-51 114q0 78 50.5 118t127.5 40
h594q83 0 122.5 -37.5t39.5 -118.5q0 -65 -32 -100t-97 -57q-70 -19 -152 -76.5t-155.5 -140.5t-122.5 -197t-49 -229q0 -49 8.5 -89t21.5 -68t36 -51t42.5 -37t52 -27.5t54 -19.5t57.5 -16q301 -82 301 -301q0 -56 -12 -111t-36 -103.5t-65 -78.5t-94 -30z" />
    <glyph glyph-name="eta" unicode="&#x3b7;" horiz-adv-x="1067" 
d="M35 158v864q0 69 40.5 116.5t114.5 47.5t117 -42.5t45 -94.5q129 143 283 143q63 0 121.5 -22t111 -67.5t84 -127t31.5 -189.5v-1058q0 -158 -162 -158q-159 0 -159 158v1001q0 87 -44.5 134.5t-105.5 47.5q-65 0 -112.5 -48t-47.5 -134v-571q0 -158 -162 -158
q-155 0 -155 158z" />
    <glyph glyph-name="theta" unicode="&#x3b8;" horiz-adv-x="1196" 
d="M569 1575q96 0 177 -37t137.5 -100t99.5 -143t68 -172t37 -179.5t12 -171.5q0 -91 -12.5 -180t-38 -179t-69 -166t-101 -135t-138 -92.5t-176.5 -33.5q-97 0 -178 35t-137 96.5t-98 138.5t-66 168t-35.5 178t-11.5 174q0 74 8 149t27 154.5t46.5 150.5t70.5 135t96.5 110
t125.5 73t156 27zM561 635q-65 0 -105 40t-40 113q0 76 40 119t105 43q76 0 113 -46t37 -116q0 -66 -36.5 -109.5t-113.5 -43.5zM575 1255q-59 0 -103.5 -50t-67.5 -128.5t-33.5 -156t-10.5 -150.5t10 -148.5t32.5 -151t66 -123.5t102.5 -48q56 0 98 49t63 126t30.5 152
t9.5 146q0 72 -9.5 148t-30 155t-61.5 129.5t-96 50.5z" />
    <glyph glyph-name="iota" unicode="&#x3b9;" horiz-adv-x="475" 
d="M350 1044v-886q0 -78 -42 -118t-122 -40q-159 0 -159 158v886q0 160 159 160q164 0 164 -160z" />
    <glyph glyph-name="kappa" unicode="&#x3ba;" horiz-adv-x="1087" 
d="M33 158v872q0 80 38 120t119 40q160 0 160 -160v-254q66 55 198 179t197 180q48 39 109 39q65 0 114.5 -45t49.5 -109q0 -67 -66 -117l-209 -192q69 -127 129.5 -231.5t87.5 -147.5t48 -79.5t25.5 -53.5t4.5 -43q0 -71 -36.5 -115.5t-114.5 -44.5q-44 0 -87.5 23
t-66.5 59l-237 457q-23 -20 -81 -73t-65 -61v-243q0 -158 -160 -158q-157 0 -157 158z" />
    <glyph glyph-name="lambda" unicode="&#x3bb;" horiz-adv-x="1056" 
d="M18 215l306 809q-12 33 -58 157t-69 189v35q0 66 48.5 107.5t116.5 41.5q64 0 108 -39.5t65 -99.5l407 -1184q14 -40 14 -73q0 -71 -38 -114.5t-117 -43.5q-125 0 -168 125l-146 528q-14 -41 -39.5 -135.5t-33.5 -120.5q-59 -208 -80 -270q-24 -65 -64.5 -96t-107.5 -31
q-79 0 -117.5 41t-38.5 106q0 33 12 68z" />
    <glyph glyph-name="uni03BC" unicode="&#x3bc;" horiz-adv-x="1120" 
d="M37 -270v1304q0 82 38 121t118 39t118.5 -39t38.5 -121v-598q0 -57 38 -93t95 -36q81 0 131 59t50 146v522q0 82 38.5 121t120.5 39q158 0 158 -160v-864q0 -170 -158 -170q-47 0 -84.5 34.5t-38.5 96.5q-19 -63 -71.5 -100t-120.5 -37q-57 0 -101.5 39t-56.5 96v-399
q0 -82 -39 -121t-121 -39q-153 0 -153 160z" />
    <glyph glyph-name="nu" unicode="&#x3bd;" horiz-adv-x="1030" 
d="M360 1051l144 -545l139 551q52 139 170 139q72 0 114 -40.5t42 -115.5q0 -30 -13 -63l-294 -862q-41 -115 -168 -115q-119 0 -160 115l-291 866q-10 33 -10 59q0 71 45.5 113.5t114.5 42.5q128 0 167 -145z" />
    <glyph glyph-name="xi" unicode="&#x3be;" horiz-adv-x="1101" 
d="M731 -352q-61 0 -106 47.5t-45 103.5q0 29 14 77.5t14 70.5q0 17 -17 26.5t-65 20.5q-52 11 -91.5 21t-94 29.5t-94 41.5t-81.5 56.5t-69 75.5t-44 98.5t-17 125.5q0 118 88 221t229 175q-90 18 -137 69.5t-47 116.5q0 67 46.5 131t123.5 96q-1 0 -16 1t-27 1
q-11 1 -36 2t-47 2t-40 3q-42 5 -67 36.5t-25 81.5q0 82 33 120t106 38h592q83 0 122.5 -37.5t39.5 -118.5q0 -69 -31 -98t-113 -29q-183 0 -261.5 -49t-78.5 -121q0 -56 38.5 -89t105.5 -33q194 0 194 -125q0 -123 -190 -123q-110 0 -184 -60.5t-74 -148.5q0 -77 66 -139.5
t202 -96.5q311 -76 311 -297q0 -63 -25.5 -135.5t-79.5 -130t-122 -57.5z" />
    <glyph glyph-name="omicron" unicode="&#x3bf;" horiz-adv-x="1204" 
d="M573 1204q127 0 230.5 -51t169 -137t100.5 -195t35 -229q0 -123 -35.5 -232.5t-101 -194t-168.5 -134t-230 -49.5q-103 0 -190.5 34t-150 93t-106.5 138t-65.5 169.5t-21.5 187.5q0 121 34.5 228t99.5 190.5t168.5 132.5t231.5 49zM573 913q-68 0 -116 -45t-69 -111
t-21 -143t20.5 -153.5t69.5 -134.5t116 -58q68 0 116.5 49t69.5 117.5t21 145.5q0 56 -12.5 112.5t-37 107t-65.5 82t-92 31.5z" />
    <glyph glyph-name="pi" unicode="&#x3c0;" horiz-adv-x="1087" 
d="M35 158v872q0 66 42 114t109 48h648q159 0 159 -164v-870q0 -80 -38 -119t-121 -39q-158 0 -158 158v733h-322v-733q0 -158 -161 -158q-158 0 -158 158z" />
    <glyph glyph-name="rho" unicode="&#x3c1;" horiz-adv-x="1173" 
d="M580 913q-106 0 -162 -80.5t-56 -224.5q0 -153 62.5 -234t148.5 -81q80 0 138.5 80t58.5 219q0 58 -10.5 112t-32 102.5t-59.5 77.5t-88 29zM39 -260v864q0 131 35.5 244t101.5 197t167 132t226 48q129 0 229.5 -48t163 -133.5t94 -199.5t31.5 -250q0 -125 -26.5 -230.5
t-71 -177t-103 -121.5t-121.5 -73t-128 -23q-87 0 -162 43t-117 119v-391q0 -82 -39.5 -121t-121.5 -39q-158 0 -158 160z" />
    <glyph glyph-name="sigma1" unicode="&#x3c2;" horiz-adv-x="1187" 
d="M676 885q-114 0 -195.5 -84t-81.5 -223q0 -162 113 -226q46 -26 164 -55q70 -17 128.5 -44t107 -66.5t75.5 -95t27 -122.5q0 -75 -24.5 -147.5t-78.5 -125t-125 -52.5q-60 0 -105.5 47.5t-45.5 103.5q0 22 3 53t3 43q0 30 -14.5 53.5t-53.5 49.5q-60 14 -96 24t-96 33
t-97.5 49.5t-83.5 73t-72 103t-44 139t-18 182.5q0 131 53.5 247.5t140.5 196t198 126t226 46.5q124 0 250 -57q49 -22 82 -65t33 -86q0 -68 -44.5 -118t-111.5 -50q-31 0 -104 23.5t-113 23.5z" />
    <glyph glyph-name="sigma" unicode="&#x3c3;" horiz-adv-x="1335" 
d="M596 1214l498 -2q74 -5 124 -47.5t50 -113.5q0 -62 -53 -111t-117 -49l-137 24q126 -160 126 -399q0 -103 -37.5 -199.5t-104 -171t-164 -119t-210.5 -44.5q-102 0 -189 35.5t-148 96t-104.5 141t-64 172t-20.5 187.5q0 124 36.5 232.5t105 190.5t174 129.5t235.5 47.5z
M578 291q52 0 91 24t61 65.5t33 90.5t11 104q0 58 -10.5 113.5t-31.5 106t-60 81.5t-90 31q-98 0 -153.5 -88.5t-55.5 -206.5q0 -76 21.5 -147t69.5 -122.5t114 -51.5z" />
    <glyph glyph-name="tau" unicode="&#x3c4;" horiz-adv-x="1095" 
d="M182 1196h635q166 0 166 -154q0 -78 -40 -114.5t-122 -36.5h-162v-473q0 -73 6.5 -100t32.5 -27q174 0 174 -154q0 -153 -174 -153q-87 0 -150.5 20t-103 54.5t-63 90.5t-32.5 119.5t-9 149.5v471h-150q-155 0 -155 155q0 152 147 152z" />
    <glyph glyph-name="upsilon" unicode="&#x3c5;" horiz-adv-x="1073" 
d="M35 422v612q0 160 155 160q83 0 122.5 -39t39.5 -121v-569q0 -71 43.5 -119.5t110.5 -48.5t111.5 48.5t44.5 119.5v569q0 160 159 160q162 0 162 -160v-612q0 -125 -67.5 -228.5t-176.5 -160t-233 -56.5q-125 0 -232.5 56t-173 159t-65.5 230z" />
    <glyph glyph-name="phi" unicode="&#x3c6;" horiz-adv-x="1472" 
d="M498 297v360q0 50 5 99.5t18 105.5t32.5 105t52 94t73.5 77.5t99 52t127 19.5q90 0 166.5 -34.5t130 -92.5t92 -133.5t56.5 -157t18 -163.5q0 -255 -150.5 -431.5t-398.5 -205.5v-254q0 -79 -41 -120.5t-119 -41.5q-161 0 -161 162v256q-120 17 -213 72.5t-149 137
t-84.5 178.5t-28.5 204q0 177 87 348t232 264q42 21 80 21q45 0 74.5 -24.5t29.5 -72.5q0 -40 -15.5 -74.5t-47.5 -80.5q-27 -40 -42.5 -66.5t-37 -75.5t-31.5 -110t-10 -135q0 -85 41.5 -166t114.5 -117zM819 653v-368q102 27 162.5 124t60.5 222q0 44 -8 90t-23.5 89.5
t-43 71t-62.5 27.5q-59 0 -74 -53q-12 -35 -12 -203z" />
    <glyph glyph-name="chi" unicode="&#x3c7;" horiz-adv-x="1067" 
d="M61 -184l308 626q-24 47 -136 252q-87 155 -133 252q-20 48 -20 94q0 160 158 160q108 0 153 -98l144 -383l161 385q47 92 146 92q67 0 114.5 -46.5t47.5 -115.5q0 -44 -23 -94l-291 -498q52 -104 154 -292q108 -198 172 -330q24 -49 24 -90q0 -38 -14 -70
q-41 -84 -139 -84q-52 0 -96.5 30t-69.5 83l-191 469q-12 -29 -86 -232q-46 -135 -90 -241q-50 -113 -170 -113q-98 0 -135 82q-12 24 -12 63q0 47 24 99z" />
    <glyph glyph-name="psi" unicode="&#x3c8;" horiz-adv-x="1427" 
d="M825 1161v-880q66 31 101 119.5t35 197.5v424q0 176 159 176q68 0 117 -49.5t49 -128.5v-410q0 -253 -119 -423.5t-344 -200.5v-226q0 -94 -38.5 -140t-120.5 -46q-158 0 -158 186v226q-225 30 -342 201t-117 423v410q0 178 158 178q68 0 117 -50t49 -126v-412
q0 -116 34 -205.5t101 -121.5v878q0 164 158 164q83 0 122 -40t39 -124z" />
    <glyph glyph-name="omega" unicode="&#x3c9;" horiz-adv-x="1394" 
d="M901 -16q-86 0 -153 69.5t-89 200.5q-21 -118 -89.5 -193t-149.5 -75q-70 0 -136.5 36t-118.5 99t-84 157t-32 201q0 215 74.5 394t189.5 290q46 39 115 39q64 0 102.5 -42t38.5 -101q0 -24 -6.5 -43.5t-13 -30.5t-21.5 -29q-159 -177 -159 -467q0 -90 30 -141t70 -51
q30 0 52 35t22 96v227q0 170 123 170q118 0 118 -163v-234q0 -62 22 -96.5t52 -34.5q40 0 71.5 52t31.5 143q0 258 -156 456q-49 61 -49 113q0 61 39.5 103t103.5 42q67 0 113 -39q119 -106 191.5 -279.5t72.5 -395.5q0 -115 -32.5 -212.5t-85.5 -161t-120 -99t-137 -35.5z
" />
    <glyph glyph-name="iotadieresis" unicode="&#x3ca;" horiz-adv-x="645" 
d="M463 158v886q0 160 -164 160q-160 0 -160 -160v-886q0 -78 41 -118t119 -40q80 0 122 40t42 118zM-125 1507q0 77 53 130t131 53q75 0 129 -53.5t54 -129.5t-54 -129t-129 -53q-78 0 -131 52.5t-53 129.5zM385 1507q0 76 52.5 129.5t127.5 53.5q78 0 130.5 -53t52.5 -130
t-52.5 -129.5t-130.5 -52.5q-75 0 -127.5 53t-52.5 129z" />
    <glyph glyph-name="upsilondieresis" unicode="&#x3cb;" horiz-adv-x="1073" 
d="M35 1034v-612q0 -127 65.5 -230t173 -159t232.5 -56q124 0 233 56.5t176.5 160t67.5 228.5v612q0 160 -162 160q-159 0 -159 -160v-569q0 -71 -44.5 -119.5t-111.5 -48.5t-110.5 48.5t-43.5 119.5v569q0 82 -39.5 121t-122.5 39q-155 0 -155 -160zM78 1507q0 77 53 130
t131 53q75 0 128.5 -53.5t53.5 -129.5t-53.5 -129t-128.5 -53q-78 0 -131 52.5t-53 129.5zM588 1507q0 76 52.5 129.5t127.5 53.5q78 0 130 -53t52 -130t-52 -129.5t-130 -52.5q-75 0 -127.5 53t-52.5 129z" />
    <glyph glyph-name="omicrontonos" unicode="&#x3cc;" horiz-adv-x="1204" 
d="M573 1204q127 0 230.5 -51t169 -137t100.5 -195t35 -229q0 -123 -35.5 -232.5t-101 -194t-168.5 -134t-230 -49.5q-103 0 -190.5 34t-150 93t-106.5 138t-65.5 169.5t-21.5 187.5q0 121 34.5 228t99.5 190.5t168.5 132.5t231.5 49zM573 913q-68 0 -116 -45t-69 -111
t-21 -143t20.5 -153.5t69.5 -134.5t116 -58q68 0 116.5 49t69.5 117.5t21 145.5q0 56 -12.5 112.5t-37 107t-65.5 82t-92 31.5zM872 1716l-122 -276q-12 -28 -20 -43t-25 -36t-42 -30.5t-59 -9.5q-81 0 -120.5 42.5t-39.5 111.5q0 12 5.5 35.5t13.5 35.5l119 279
q46 106 149 106q77 0 115.5 -40t38.5 -115q0 -25 -13 -60z" />
    <glyph glyph-name="upsilontonos" unicode="&#x3cd;" horiz-adv-x="1073" 
d="M35 422v612q0 160 155 160q83 0 122.5 -39t39.5 -121v-569q0 -71 43.5 -119.5t110.5 -48.5t111.5 48.5t44.5 119.5v569q0 160 159 160q162 0 162 -160v-612q0 -125 -67.5 -228.5t-176.5 -160t-233 -56.5q-125 0 -232.5 56t-173 159t-65.5 230zM786 1716l-122 -276
q-12 -28 -20 -43t-25 -36t-42 -30.5t-59 -9.5q-81 0 -120.5 42.5t-39.5 111.5q0 12 5.5 35.5t13.5 35.5l119 279q46 106 149 106q77 0 115.5 -40t38.5 -115q0 -25 -13 -60z" />
    <glyph glyph-name="omegatonos" unicode="&#x3ce;" horiz-adv-x="1394" 
d="M901 -16q-86 0 -153 69.5t-89 200.5q-21 -118 -89.5 -193t-149.5 -75q-70 0 -136.5 36t-118.5 99t-84 157t-32 201q0 215 74.5 394t189.5 290q46 39 115 39q64 0 102.5 -42t38.5 -101q0 -24 -6.5 -43.5t-13 -30.5t-21.5 -29q-159 -177 -159 -467q0 -90 30 -141t70 -51
q30 0 52 35t22 96v227q0 170 123 170q118 0 118 -163v-234q0 -62 22 -96.5t52 -34.5q40 0 71.5 52t31.5 143q0 258 -156 456q-49 61 -49 113q0 61 39.5 103t103.5 42q67 0 113 -39q119 -106 191.5 -279.5t72.5 -395.5q0 -115 -32.5 -212.5t-85.5 -161t-120 -99t-137 -35.5z
M944 1716l-123 -276q-12 -29 -20 -43.5t-24.5 -35.5t-41.5 -30.5t-59 -9.5q-81 0 -120.5 42.5t-39.5 111.5q0 12 5.5 35.5t13.5 35.5l118 279q46 106 150 106q153 0 153 -155q0 -28 -12 -60z" />
    <glyph glyph-name="endash" unicode="&#x2013;" horiz-adv-x="1474" 
d="M219 758h922q170 0 170 -164q0 -81 -41.5 -119.5t-128.5 -38.5h-922q-87 0 -128.5 38.5t-41.5 119.5q0 66 47 115t123 49z" />
    <glyph glyph-name="emdash" unicode="&#x2014;" horiz-adv-x="1900" 
d="M236 758h1282q170 0 170 -164q0 -82 -41 -120t-129 -38h-1282q-87 0 -128.5 38.5t-41.5 119.5q0 66 47 115t123 49z" />
    <glyph glyph-name="quoteleft" unicode="&#x2018;" horiz-adv-x="520" 
d="M313 1466l133 -309q21 -31 21 -70q0 -58 -53 -105.5t-107 -47.5t-96.5 35.5t-63.5 83.5l-122 297l2 -7q-15 43 -15 64q0 64 49.5 108t114.5 44q94 0 137 -93z" />
    <glyph glyph-name="quoteright" unicode="&#x2019;" horiz-adv-x="520" 
d="M35 1155l131 311q39 93 139 93q65 0 113.5 -44t48.5 -108q0 -32 -14 -64l-119 -290q-21 -48 -64 -83.5t-96 -35.5q-55 0 -108.5 47.5t-53.5 105.5q0 30 23 68z" />
    <glyph glyph-name="quotesinglbase" unicode="&#x201a;" horiz-adv-x="520" 
d="M446 162l-133 -314q-46 -90 -137 -90q-65 0 -114.5 44.5t-49.5 107.5q0 27 15 61l120 293q21 49 65.5 82t96.5 33q57 0 107.5 -45t50.5 -105q0 -33 -21 -67z" />
    <glyph glyph-name="quotedblleft" unicode="&#x201c;" horiz-adv-x="1015" 
d="M328 1466l133 -309q20 -34 20 -70q0 -58 -53.5 -105.5t-108.5 -47.5q-52 0 -95 36t-62 83l-121 297l2 -7q-16 37 -16 64q0 65 48 108.5t113 43.5q97 0 140 -93zM782 1466l133 -309q19 -37 19 -70q0 -58 -53.5 -105.5t-108.5 -47.5q-52 0 -94.5 36t-61.5 83l-122 297l2 -7
q-15 35 -15 64q0 65 47.5 108.5t112.5 43.5q98 0 141 -93z" />
    <glyph glyph-name="quotedblright" unicode="&#x201d;" horiz-adv-x="1009" 
d="M500 1155l131 311q46 93 139 93q65 0 114.5 -44t49.5 -108q0 -24 -14 -64l2 7l-123 -297q-19 -48 -62.5 -83.5t-97.5 -35.5q-52 0 -105 48t-53 105q0 32 19 68zM47 1155l131 311q46 93 139 93q65 0 114.5 -44t49.5 -108q0 -24 -14 -64l2 7l-123 -297q-21 -48 -63.5 -83.5
t-96.5 -35.5q-52 0 -105.5 48t-53.5 105q0 30 20 68z" />
    <glyph glyph-name="quotedblbase" unicode="&#x201e;" horiz-adv-x="991" 
d="M461 162l-135 -314q-43 -90 -138 -90q-64 0 -113.5 44.5t-49.5 107.5q0 25 16 61l121 293q20 48 65 82.5t97 34.5q56 0 105.5 -46t49.5 -106q0 -33 -18 -67zM895 162l-133 -314q-43 -90 -139 -90q-64 0 -113 44.5t-49 107.5q0 32 16 61l119 293q21 49 67 82t97 33
q57 0 106 -44.5t49 -105.5q0 -34 -20 -67z" />
    <glyph glyph-name="dagger" unicode="&#x2020;" horiz-adv-x="1155" 
d="M868 879h-180v-699q0 -180 -156 -180q-66 0 -113.5 49t-47.5 131v699h-176q-158 0 -158 159q0 156 158 156h176v176q0 80 47.5 130t113.5 50q156 0 156 -180v-176h180q160 0 160 -160q0 -155 -160 -155z" />
    <glyph glyph-name="daggerdbl" unicode="&#x2021;" horiz-adv-x="1155" 
d="M688 684h180q160 0 160 -162q0 -153 -160 -153h-180v-195q0 -180 -156 -180q-67 0 -114 48t-47 132v195h-176q-158 0 -158 159q0 156 158 156h176v195h-176q-158 0 -158 159q0 158 158 158h176v174q0 84 47 132t114 48q156 0 156 -180v-174h180q160 0 160 -162
q0 -155 -160 -155h-180v-195z" />
    <glyph glyph-name="bullet" unicode="&#x2022;" horiz-adv-x="1187" 
d="M549 1126q176 0 289.5 -115t113.5 -290q0 -176 -113.5 -293t-289.5 -117q-179 0 -293.5 115.5t-114.5 294.5q0 176 114.5 290.5t293.5 114.5z" />
    <glyph glyph-name="ellipsis" unicode="&#x2026;" horiz-adv-x="1413" 
d="M510 182q0 77 53 130t129 53q75 0 128.5 -53.5t53.5 -129.5t-53.5 -129t-128.5 -53q-76 0 -129 53t-53 129zM987 182q0 76 52.5 129.5t127.5 53.5q77 0 130 -53.5t53 -129.5t-53 -129t-130 -53q-75 0 -127.5 53t-52.5 129zM37 182q0 77 53 130t129 53q75 0 128.5 -53.5
t53.5 -129.5t-53.5 -129t-128.5 -53q-77 0 -129.5 53t-52.5 129z" />
    <glyph glyph-name="perthousand" unicode="&#x2030;" horiz-adv-x="2906" 
d="M1575 829q119 0 208.5 -61.5t134 -158.5t44.5 -212q0 -182 -103.5 -302t-283.5 -120q-122 0 -214 60.5t-138.5 159t-46.5 217.5q0 182 108 299.5t291 117.5zM1575 260q42 0 66 40.5t24 94.5q0 58 -24.5 104t-65.5 46q-44 0 -69 -42.5t-25 -99.5q0 -58 24 -100.5t70 -42.5
zM485 707q-119 0 -210.5 62.5t-138 162t-46.5 215.5q0 179 108 297.5t287 118.5t286.5 -124.5t107.5 -305.5q0 -116 -46.5 -212t-137.5 -155t-210 -59zM485 993q46 0 70.5 41t24.5 99q0 59 -25 102t-70 43q-40 0 -64 -40.5t-24 -98.5q0 -57 23.5 -101.5t64.5 -44.5zM635 184
l495 1276q46 113 156 113q144 0 144 -152q0 -31 -13 -75q-51 -138 -270 -694t-248 -607q-47 -84 -135 -84q-71 0 -108.5 38.5t-37.5 113.5q0 22 17 71zM2417 829q119 0 209 -61.5t135 -159t45 -211.5q0 -181 -104.5 -301.5t-284.5 -120.5q-121 0 -213.5 60.5t-139.5 159
t-47 217.5q0 179 109 298t291 119zM2417 260q42 0 67 41t25 94q0 57 -25 103.5t-67 46.5q-43 0 -69 -43t-26 -99q0 -57 26 -100t69 -43z" />
    <glyph glyph-name="guilsinglleft" unicode="&#x2039;" horiz-adv-x="1396" 
d="M1128 864l-641 -266l627 -289q117 -54 117 -166q0 -143 -152 -143q-57 0 -108 25l-811 403q-113 56 -113 168q0 111 115 164l833 387q48 22 92 22q36 0 66 -12q90 -39 90 -133q0 -54 -28 -92t-87 -68z" />
    <glyph glyph-name="guilsinglright" unicode="&#x203a;" horiz-adv-x="1396" 
d="M160 315l635 271l-639 284q-109 57 -109 160q0 148 156 148q30 0 73 -15l836 -411q131 -66 131 -164q0 -108 -147 -180l-813 -392q-35 -14 -76 -14q-158 0 -158 156q0 108 111 157z" />
    <glyph glyph-name="Euro" unicode="&#x20ac;" horiz-adv-x="1589" 
d="M207 553h-53q-90 0 -125 19.5t-35 89.5q0 69 35.5 89.5t124.5 20.5h22v31q0 37 2 57h-24q-90 0 -125 19.5t-35 89.5q0 69 35.5 89.5t124.5 20.5h59q34 119 95 219t148.5 178t208.5 122t263 44q272 0 467 -178q63 -60 63 -139q0 -76 -46.5 -123t-115.5 -47q-32 0 -68 13.5
t-57 35.5q-96 96 -249 96q-121 0 -208.5 -59.5t-135.5 -161.5h444q91 0 126.5 -20.5t35.5 -91.5q0 -69 -35.5 -88t-126.5 -19h-502v-88h277q90 0 125.5 -20.5t35.5 -92.5q0 -69 -35 -87.5t-126 -18.5h-219q50 -103 137.5 -163t208.5 -60q157 0 245 88q49 49 113 49
q82 0 123 -47.5t41 -118.5q0 -85 -62 -141q-205 -183 -466 -183q-116 0 -218 30t-180.5 82t-141.5 125t-105 158t-66 181z" />
    <glyph glyph-name="trademark" unicode="&#x2122;" horiz-adv-x="1636" 
d="M217 821v488h-45q-123 0 -123 125q0 122 123 122h338q127 0 127 -124q0 -123 -127 -123h-43v-488q0 -135 -125 -135q-64 0 -94.5 33t-30.5 102zM1016 1454l63 -287l68 289q34 113 151 113q58 0 98 -35.5t50 -99.5l92 -609v-8q0 -60 -32 -91.5t-91 -31.5q-108 0 -127 113
l-26 344q-9 -33 -31 -179.5t-31 -178.5q-19 -53 -48.5 -78t-74.5 -25q-89 0 -125 105l-55 344l-25 -330q-15 -117 -127 -117q-118 0 -118 123v10l92 609q22 135 145 135q118 0 152 -115z" />
    <glyph glyph-name="Omega" unicode="&#x2126;" horiz-adv-x="1505" 
d="M260 328h920q80 0 119.5 -43.5t39.5 -120.5q0 -164 -159 -164h-920q-160 0 -160 164q0 77 40 120.5t120 43.5zM715 1638q123 0 228.5 -33.5t180 -91t127 -134t78 -162.5t25.5 -177q0 -90 -25 -175.5t-77 -161t-126.5 -132t-180 -89.5t-230.5 -33q-122 0 -225.5 33
t-176.5 89.5t-124.5 132t-76 161t-24.5 175.5q0 91 25 177t76.5 162.5t124.5 134t176.5 91t224.5 33.5zM719 1315q-142 0 -222.5 -82t-80.5 -193q0 -110 80 -189t225 -79q146 0 226.5 79t80.5 187q0 111 -82.5 194t-226.5 83z" />
    <glyph glyph-name="Delta" unicode="&#x2206;" horiz-adv-x="1429" 
d="M698 1032l-249 -692h514zM1171 0h-952q-94 0 -138 34.5t-44 106.5q0 31 14 74l-2 -6q67 183 143 390.5t168 457.5t144 391q53 149 194 149q154 0 199 -147q119 -318 471 -1239q12 -41 12 -72q0 -139 -209 -139z" />
    <glyph glyph-name="zero.onum" horiz-adv-x="1212" 
d="M580 1288h8q130 0 234 -55.5t167.5 -148t97 -207t33.5 -238.5q0 -101 -20.5 -195.5t-63.5 -180t-105 -149t-151.5 -100.5t-195.5 -37q-105 0 -195 36.5t-153 99.5t-107.5 147t-66 178.5t-21.5 194.5q0 125 34.5 241t100 209t170.5 149t234 56zM584 301q67 0 116 48
t72 120.5t23 157.5q0 86 -23 161t-72 125t-114 50q-70 0 -120.5 -48t-73.5 -120.5t-23 -157.5q0 -136 57 -236t158 -100z" />
    <glyph glyph-name="one.onum" horiz-adv-x="782" 
d="M293 170v741q-12 -5 -70 -20q-14 -2 -41 -2q-65 0 -110 41.5t-45 107.5q0 55 34 100.5t101 63.5q56 15 103.5 28t76 21t51 14.5t33 9.5t18.5 5.5t11.5 3t7.5 0.5q53 0 90.5 -27.5t52.5 -66.5q17 -27 17 -127v-893q0 -74 -45.5 -122t-118.5 -48q-74 0 -120 48t-46 122z
" />
    <glyph glyph-name="two.onum" horiz-adv-x="1107" 
d="M43 834q0 140 70.5 248.5t179 163t231.5 54.5q89 0 173.5 -31.5t150.5 -86.5t106.5 -138t40.5 -178q0 -43 -4 -73.5t-23.5 -82t-56 -102.5t-106.5 -126t-170 -163h223q156 0 156 -157q0 -78 -40 -120t-118 -42h-606q-191 0 -191 158q0 64 54 133q167 143 259.5 225
t158.5 143t91 94.5t33.5 54.5t8.5 48q0 56 -44 89.5t-102 33.5q-60 0 -102.5 -40.5t-42.5 -113.5q0 -38 -17 -77.5t-55.5 -70t-89.5 -30.5q-78 0 -123 58.5t-45 128.5z" />
    <glyph glyph-name="three.onum" horiz-adv-x="1126" 
d="M504 1315q130 0 234 -63t158 -160t54 -205q0 -95 -45 -178.5t-135 -141.5q117 -64 176.5 -165t59.5 -216q0 -89 -35 -174t-97.5 -152t-158 -108t-207.5 -41q-127 0 -232.5 58t-169.5 145q-59 83 -59 182q0 76 44.5 120t107.5 44q45 0 88.5 -27.5t64.5 -74.5
q52 -119 154 -119q70 0 121 44.5t51 123.5q0 69 -35.5 129t-99.5 70h-68q-89 0 -131.5 33t-42.5 106q0 74 42 104.5t132 30.5q40 0 60 4q39 11 64.5 66.5t25.5 109.5q0 61 -34 98t-95 37q-34 0 -60 -9.5t-39 -21.5t-21.5 -29t-10.5 -25t-3 -17q-1 -12 -7 -28t-19 -36
t-39 -33.5t-61 -13.5q-170 0 -170 148q0 152 126.5 268.5t311.5 116.5z" />
    <glyph glyph-name="four.onum" horiz-adv-x="1191" 
d="M649 -59v165h-430q-88 0 -137 51.5t-49 127.5q0 69 43 123l471 759q79 129 217 129q90 0 149.5 -60.5t59.5 -160.5v-647q77 -2 115 -41.5t38 -122.5q0 -153 -151 -153v-170q0 -88 -42 -133.5t-122 -45.5q-76 0 -119 46t-43 133zM649 735l-190 -307h190v307z" />
    <glyph glyph-name="five.onum" horiz-adv-x="1185" 
d="M475 1245h430q73 0 116.5 -49t43.5 -121q0 -160 -160 -160h-340q-7 -56 -24 -157q131 0 235 -43.5t167 -117t95.5 -164t32.5 -191.5q0 -103 -34.5 -200t-100 -176t-171 -127t-235.5 -48q-95 0 -184 31t-150 78t-98 104t-37 108q0 73 44.5 115.5t105.5 42.5q35 0 70 -18.5
t59 -51.5q30 -39 87 -64.5t112 -25.5q89 0 145.5 64.5t56.5 150.5q0 87 -54 152t-152 65q-35 0 -94 -15t-89 -15q-164 0 -164 157q0 29 97 527q14 70 63.5 109.5t126.5 39.5z" />
    <glyph glyph-name="six.onum" horiz-adv-x="1153" 
d="M768 1262q-10 -9 -47.5 -42t-53.5 -47.5t-48 -46.5t-50 -55t-39.5 -56t-35.5 -65q27 14 58.5 21.5t51 8.5t55.5 1q95 0 171.5 -38.5t123.5 -103t72 -144t25 -165.5q0 -146 -61.5 -271t-180 -203.5t-268.5 -78.5q-120 0 -218 48.5t-159.5 130t-94 184.5t-32.5 217
q0 108 27.5 217.5t73 204.5t110.5 188.5t132.5 170t145.5 149.5q63 49 123 49q72 0 120 -44t48 -120q0 -61 -49 -110zM360 528q0 -92 48.5 -161t132.5 -72q87 7 137.5 74.5t50.5 156.5q0 86 -49 147.5t-143 61.5q-85 0 -131 -61.5t-46 -145.5z" />
    <glyph glyph-name="seven.onum" horiz-adv-x="1114" 
d="M211 1274h645q70 0 122 -50.5t52 -127.5q0 -36 -18 -82l-484 -1145q-56 -129 -172 -129q-78 0 -115.5 47.5t-37.5 114.5q0 43 18 84l410 956h-420q-90 0 -133 41t-43 125t43 125t133 41z" />
    <glyph glyph-name="eight.onum" horiz-adv-x="1126" 
d="M41 485q0 106 58.5 207t148.5 152q-70 42 -113 126t-43 175q0 181 132 304.5t317 123.5q190 0 314 -120t124 -308q0 -83 -45 -164.5t-113 -124.5q84 -40 149.5 -153t65.5 -222q0 -135 -64.5 -250.5t-178.5 -184.5t-250 -69q-223 0 -362.5 143.5t-139.5 364.5zM543 676
q-73 0 -119.5 -54t-46.5 -130q0 -79 45.5 -133t120.5 -54q70 0 113.5 53t43.5 129q0 79 -45 134t-112 55zM537 993q48 0 78 42.5t30 99.5q0 55 -31.5 86.5t-74.5 31.5q-48 0 -83.5 -31.5t-35.5 -86.5q0 -59 31.5 -100.5t85.5 -41.5z" />
    <glyph glyph-name="nine.onum" horiz-adv-x="1191" 
d="M367 -39q207 166 315 326q-98 -35 -193 -35q-103 0 -188.5 43.5t-139 114.5t-83 156t-29.5 173q0 104 33.5 200t96.5 174t165 124.5t229 46.5q156 0 273.5 -78.5t178 -212t60.5 -301.5q0 -84 -14 -170.5t-50.5 -191.5t-93 -205t-149 -209t-211.5 -205q-48 -39 -112 -39
q-66 0 -111 43.5t-45 106.5q0 49 17.5 80.5t50.5 58.5zM565 950q-62 0 -106 -37t-63 -87.5t-19 -106.5q0 -104 55.5 -164.5t134.5 -60.5q87 0 143 56.5t56 166.5q0 58 -20.5 109t-67.5 87.5t-113 36.5z" />
    <glyph glyph-name="A.smcp" horiz-adv-x="1323" 
d="M623 770l-95 -192h191q0 1 -16 39t-34.5 74t-45.5 79zM956 92l-98 184h-463l-73 -153l2 6q-44 -129 -168 -129q-74 0 -111 45t-37 111q0 32 17 75l407 854q26 68 76 104t115 36q136 0 190 -138q77 -152 219.5 -441t206.5 -417q16 -39 16 -75q0 -69 -41 -111.5t-114 -42.5
q-112 0 -150 100z" />
    <glyph glyph-name="B.smcp" horiz-adv-x="1175" 
d="M39 180v844q0 178 166 178h332q68 0 128.5 -11.5t115.5 -37.5t95 -64.5t63.5 -96t23.5 -128.5q0 -122 -76 -207q76 -49 122 -126t46 -154q0 -72 -29 -139t-82 -120.5t-135.5 -85.5t-181.5 -32h-391q-96 0 -132 31q-65 43 -65 149zM356 502v-187h215q63 0 99.5 27.5
t36.5 65.5q0 39 -41 66.5t-119 27.5h-191zM356 725h189q56 0 85 25t29 59q0 33 -25 56.5t-67 23.5h-211v-164z" />
    <glyph glyph-name="C.smcp" horiz-adv-x="1294" 
d="M938 399q42 47 109 47q80 0 118.5 -44t38.5 -111q0 -84 -59 -137q-199 -172 -451 -172q-140 0 -259.5 46t-202.5 128t-130 198t-47 252q0 281 181.5 455t468.5 174q259 0 448 -174q64 -58 64 -133q0 -72 -46 -118t-112 -46q-30 0 -65 13.5t-54 35.5q-91 88 -240 88
q-131 0 -220 -75t-89 -208q0 -142 88 -227.5t223 -85.5q136 0 236 94z" />
    <glyph glyph-name="D.smcp" horiz-adv-x="1351" 
d="M43 166v858q0 178 197 178h362q113 0 214 -40.5t178.5 -115.5t123 -191.5t45.5 -258.5q0 -146 -49.5 -262t-133.5 -187.5t-190 -109t-225 -37.5h-354q-99 0 -133.5 31.5t-34.5 134.5zM580 889h-220v-574h195q123 0 202 68.5t79 212.5q0 147 -75 220t-181 73z" />
    <glyph glyph-name="E.smcp" horiz-adv-x="993" 
d="M35 174v856q0 172 164 172h553q83 0 121 -38t38 -120q0 -79 -38.5 -117t-120.5 -38h-404v-146h318q84 0 121.5 -30.5t37.5 -106.5t-37.5 -105.5t-121.5 -29.5h-318v-156h420q170 0 170 -157q0 -158 -170 -158h-569q-106 0 -135 33t-29 141z" />
    <glyph glyph-name="F.smcp" horiz-adv-x="909" 
d="M33 145v879q0 178 164 178h538q160 0 160 -158q0 -155 -160 -155h-387v-191h270q158 0 158 -161q0 -156 -158 -156h-270v-236q0 -145 -160 -145q-155 0 -155 145z" />
    <glyph glyph-name="G.smcp" horiz-adv-x="1478" 
d="M752 711l333 -2q59 -4 96.5 -19t55 -44.5t23.5 -61.5t6 -84q0 -105 -42 -199.5t-117.5 -165t-190 -112t-250.5 -41.5q-106 0 -203 33.5t-170.5 91.5t-128 134t-83 163t-28.5 176q0 173 75 319t218 236t326 90q120 0 240 -49.5t212 -145.5q31 -39 31 -78q0 -59 -51 -105
t-115 -46q-51 0 -94 28q-59 54 -111.5 71.5t-117.5 17.5q-124 0 -206.5 -91.5t-82.5 -228.5t94 -227t215 -90q78 0 144 44t104 132h-186q-61 0 -93 34t-32 82q0 55 35.5 96.5t93.5 41.5z" />
    <glyph glyph-name="H.smcp" horiz-adv-x="1175" 
d="M39 158v891q0 159 156 159q82 0 120.5 -38.5t38.5 -120.5v-277h387v277q0 159 158 159q160 0 160 -159v-891q0 -78 -41 -118t-119 -40q-158 0 -158 158v297h-387v-297q0 -158 -157 -158q-158 0 -158 158z" />
    <glyph glyph-name="I.smcp" horiz-adv-x="346" 
d="M6 160v887q0 159 158 159q80 0 119 -39t39 -120v-887q0 -160 -158 -160t-158 160z" />
    <glyph glyph-name="J.smcp" horiz-adv-x="862" 
d="M782 1047v-685q0 -176 -110 -281.5t-285 -105.5q-177 0 -307 115q-53 44 -53 119q0 162 153 162q45 0 127 -60q41 -24 82 -24q35 0 55.5 20t20.5 55v685q0 81 39 120t119 39q159 0 159 -159z" />
    <glyph glyph-name="K.smcp" horiz-adv-x="1210" 
d="M43 147v920q0 145 156 145q159 0 159 -145v-338l486 434q53 47 102 47q64 0 115 -51.5t51 -114.5q0 -67 -47 -108q-71 -61 -173 -146t-151 -126l353 -388q55 -47 55 -118q0 -69 -58 -114.5t-102 -45.5q-33 0 -58 9t-37.5 19.5t-33.5 32.5l-354 383l-148 -127v-168
q0 -147 -155 -147q-160 0 -160 147z" />
    <glyph glyph-name="L.smcp" horiz-adv-x="1040" 
d="M37 197v852q0 159 156 159q82 0 120.5 -38.5t38.5 -120.5v-734h492q160 0 160 -155q0 -82 -39 -121t-121 -39h-627q-180 0 -180 197z" />
    <glyph glyph-name="M.smcp" horiz-adv-x="1710" 
d="M662 1042l143 -464q26 72 75.5 236t71.5 228q63 181 215 181q174 0 203 -213v8l172 -836v-16q0 -1 1 -3t1 -3q0 -72 -45.5 -115t-114.5 -43q-135 0 -161 145l-93 508q-25 -72 -83.5 -252.5t-88.5 -265.5q-50 -137 -159 -137q-116 0 -160 137l-162 520q-20 -89 -54 -270.5
t-46 -239.5v9q-11 -78 -49 -116t-113 -38q-72 0 -114 39t-42 115q0 29 4 43l179 821q44 205 207 205q73 0 129 -48.5t84 -134.5z" />
    <glyph glyph-name="N.smcp" horiz-adv-x="1232" 
d="M41 162v891q0 85 39.5 128.5t116.5 43.5q101 0 170 -103q290 -355 438 -532v473q0 160 153 160q160 0 160 -160v-891q0 -172 -157 -172q-98 0 -162 88q-111 136 -243 293.5t-200 239.5v-459q0 -162 -157 -162q-158 0 -158 162z" />
    <glyph glyph-name="O.smcp" horiz-adv-x="1402" 
d="M672 1212q174 0 316 -81t222 -222.5t80 -314.5q0 -164 -75.5 -302.5t-218.5 -223t-324 -84.5q-141 0 -260 49.5t-197.5 134t-122 196t-43.5 236.5q0 82 22.5 165.5t73 164t121 143t176 101t230.5 38.5zM672 897q-137 0 -219 -81t-82 -212q0 -129 85 -218t220 -89
q127 0 208 84t81 209q0 128 -83 217.5t-210 89.5z" />
    <glyph glyph-name="P.smcp" horiz-adv-x="1087" 
d="M39 160v880q0 84 41 124t125 40h368q112 0 202.5 -36.5t145.5 -97.5t84 -136t29 -158q0 -68 -16.5 -131.5t-52.5 -121t-87.5 -100.5t-126.5 -68t-165 -25h-234v-170q0 -82 -38.5 -121t-118.5 -39t-118 39t-38 121zM549 891h-197v-246h226q73 0 107 33.5t34 83.5
q0 54 -41 91.5t-129 37.5z" />
    <glyph glyph-name="Q.smcp" horiz-adv-x="1564" 
d="M672 1212q174 0 316 -81t222 -222.5t80 -314.5q0 -187 -96 -336q3 -4 13 -14t14 -15q43 -49 43 -108q0 -64 -41 -110t-111 -46q-63 0 -106 43l-41 41q-130 -65 -293 -65q-141 0 -260 49.5t-197.5 134t-122 196t-43.5 236.5q0 82 22.5 165.5t73 164t121 143t176 101
t230.5 38.5zM672 897q-137 0 -219 -81t-82 -212q0 -129 85 -218t220 -89q25 0 37 2q-45 76 -45 109q0 70 50 120t113 50q24 0 61 -20.5t64 -43.5q9 52 9 76q0 128 -83 217.5t-210 89.5z" />
    <glyph glyph-name="R.smcp" horiz-adv-x="1091" 
d="M37 174v885q0 164 194 164h275q238 0 373 -104.5t135 -313.5q0 -224 -180 -332q21 -33 67 -103t70 -108l-6 8q17 -20 25.5 -44.5t9.5 -38t1 -40.5q0 -67 -37.5 -108t-109.5 -41q-76 0 -145 86l-197 291h-160v-201q0 -174 -157 -174q-158 0 -158 174zM582 907h-230v-219
h230q55 0 87.5 35t32.5 80q0 43 -31 73.5t-89 30.5z" />
    <glyph glyph-name="S.smcp" horiz-adv-x="1019" 
d="M539 254q100 0 100 74q0 25 -31.5 51.5t-82 52.5t-111 55.5t-121.5 67t-111.5 79.5t-82 99t-31.5 121q0 121 63.5 206.5t163.5 124t225 38.5q182 0 328 -76q40 -22 61 -57.5t21 -73.5q0 -54 -38 -92.5t-104 -38.5q-62 0 -102 22q-69 39 -207 39q-94 0 -94 -74
q0 -25 25 -49t66 -43.5t93.5 -43.5t107.5 -48t107.5 -57.5t93.5 -71t66 -90t25 -113.5q0 -78 -27 -142t-72 -106.5t-106 -71.5t-126 -41.5t-134 -12.5q-197 0 -391 118q-64 46 -64 131q0 65 44 100.5t104 35.5q41 0 83 -17.5t74 -39t81.5 -39t103.5 -17.5z" />
    <glyph glyph-name="T.smcp" horiz-adv-x="1077" 
d="M379 168v721h-176q-84 0 -124 38t-40 117q0 82 39.5 120t124.5 38h671q160 0 160 -158q0 -155 -160 -155h-178v-721q0 -168 -157 -168q-160 0 -160 168z" />
    <glyph glyph-name="U.smcp" horiz-adv-x="1204" 
d="M41 610v426q0 87 41 128.5t125 41.5t124 -41.5t40 -128.5v-409q0 -318 215 -318q94 0 144 70.5t50 247.5v409q0 170 166 170q168 0 168 -170v-426q0 -628 -545 -628q-91 0 -168 20t-145 66.5t-114.5 117.5t-73.5 179t-27 245z" />
    <glyph glyph-name="V.smcp" horiz-adv-x="1216" 
d="M358 1096l215 -615q40 98 112 318t103 301q42 110 150 110q62 0 117 -52t55 -114q0 -25 -16 -61l-330 -813q-32 -78 -81 -124t-110 -46q-112 0 -176 154l-346 835q-10 33 -10 68q0 155 162 155q115 0 155 -116z" />
    <glyph glyph-name="W.smcp" horiz-adv-x="1759" 
d="M383 1081l111 -549l155 560q40 133 182 133q145 0 181 -133l147 -547q20 80 55.5 273t51.5 263q25 148 164 148q67 0 115 -46.5t48 -115.5q0 -25 -8 -45l4 6q-22 -90 -97 -395.5t-114 -470.5q-17 -71 -74 -116.5t-130 -45.5q-69 0 -126.5 38.5t-74.5 115.5
q-37 122 -72.5 249.5t-73.5 251.5l-141 -479q-26 -89 -83.5 -134.5t-125.5 -45.5q-72 0 -128.5 49t-76.5 129l-206 854l2 -6q-7 23 -7 45q0 71 47 114.5t113 43.5q135 0 162 -144z" />
    <glyph glyph-name="X.smcp" horiz-adv-x="1120" 
d="M88 285l281 329l-242 314q-37 42 -37 106q0 67 47.5 112.5t112.5 45.5q94 0 147 -80l146 -252l151 256q54 78 144 78q67 0 114 -44.5t47 -111.5q0 -61 -41 -110l-243 -303l280 -332q52 -63 52 -143q0 -150 -148 -150q-108 0 -166 94l-201 281q-27 -38 -94 -135t-104 -148
q-58 -88 -152 -88q-143 0 -143 146q0 71 49 135z" />
    <glyph glyph-name="Y.smcp" horiz-adv-x="1157" 
d="M399 170v219q-37 64 -155 268.5t-181 315.5q-22 37 -22 92q0 75 38 114.5t111 39.5q90 0 136 -84l241 -461q39 66 118 233t114 226q53 86 145 86q75 0 113.5 -38t38.5 -110q0 -38 -23 -86l-354 -602v-213q0 -170 -160 -170t-160 170z" />
    <glyph glyph-name="Z.smcp" horiz-adv-x="1175" 
d="M76 291l497 600h-348q-79 0 -120.5 38.5t-41.5 114.5q0 160 162 160h641q93 0 138 -40.5t45 -106.5q0 -62 -54 -144l-497 -598h413q162 0 162 -153q0 -162 -162 -162h-718q-154 0 -154 168q0 68 37 123z" />
    <glyph glyph-name="Alpha.smcp" horiz-adv-x="1323" 
d="M623 770l-95 -192h191q0 1 -16 39t-34.5 74t-45.5 79zM956 92l-98 184h-463l-73 -153l2 6q-44 -129 -168 -129q-74 0 -111 45t-37 111q0 32 17 75l407 854q26 68 76 104t115 36q136 0 190 -138q77 -152 219.5 -441t206.5 -417q16 -39 16 -75q0 -69 -41 -111.5t-114 -42.5
q-112 0 -150 100z" />
    <glyph glyph-name="Beta.smcp" horiz-adv-x="1175" 
d="M39 180v844q0 178 166 178h332q68 0 128.5 -11.5t115.5 -37.5t95 -64.5t63.5 -96t23.5 -128.5q0 -122 -76 -207q76 -49 122 -126t46 -154q0 -72 -29 -139t-82 -120.5t-135.5 -85.5t-181.5 -32h-391q-96 0 -132 31q-65 43 -65 149zM356 502v-187h215q63 0 99.5 27.5
t36.5 65.5q0 39 -41 66.5t-119 27.5h-191zM356 725h189q56 0 85 25t29 59q0 33 -25 56.5t-67 23.5h-211v-164z" />
    <glyph glyph-name="Gamma.smcp" horiz-adv-x="993" 
d="M35 160v862q0 178 164 178h575q71 0 116.5 -48t45.5 -114q0 -75 -41.5 -114t-120.5 -39h-424v-725q0 -160 -160 -160q-155 0 -155 160z" />
    <glyph glyph-name="Delta.smcp" horiz-adv-x="1429" 
d="M651 711l-168 -389h342q-91 206 -174 389zM1067 0h-844q-90 0 -133 33.5t-43 103.5q0 29 14 70l402 880q64 138 186 138q67 0 117.5 -37.5t71.5 -108.5l413 -872q15 -39 15 -72q0 -135 -199 -135z" />
    <glyph glyph-name="Epsilon.smcp" horiz-adv-x="993" 
d="M35 174v856q0 172 164 172h553q83 0 121 -38t38 -120q0 -79 -38.5 -117t-120.5 -38h-404v-146h318q84 0 121.5 -30.5t37.5 -106.5t-37.5 -105.5t-121.5 -29.5h-318v-156h420q170 0 170 -157q0 -158 -170 -158h-569q-106 0 -135 33t-29 141z" />
    <glyph glyph-name="Zeta.smcp" horiz-adv-x="1175" 
d="M76 291l497 600h-348q-79 0 -120.5 38.5t-41.5 114.5q0 160 162 160h641q93 0 138 -40.5t45 -106.5q0 -62 -54 -144l-497 -598h413q162 0 162 -153q0 -162 -162 -162h-718q-154 0 -154 168q0 68 37 123z" />
    <glyph glyph-name="Eta.smcp" horiz-adv-x="1175" 
d="M39 158v891q0 159 156 159q82 0 120.5 -38.5t38.5 -120.5v-277h387v277q0 159 158 159q160 0 160 -159v-891q0 -78 -41 -118t-119 -40q-158 0 -158 158v297h-387v-297q0 -158 -157 -158q-158 0 -158 158z" />
    <glyph glyph-name="Theta.smcp" horiz-adv-x="1374" 
d="M705 438h-76q-78 0 -118 42t-40 116q0 75 40 117.5t118 42.5h76q80 0 119.5 -41.5t39.5 -118.5q0 -158 -159 -158zM672 1212q174 0 316 -81t222 -222.5t80 -314.5q0 -164 -75.5 -302.5t-218.5 -223t-324 -84.5q-141 0 -260 49.5t-197.5 134t-122 196t-43.5 236.5
q0 82 22.5 165.5t73 164t121 143t176 101t230.5 38.5zM672 897q-137 0 -219 -81t-82 -212q0 -129 85 -218t220 -89q127 0 208 84t81 209q0 128 -83 217.5t-210 89.5z" />
    <glyph glyph-name="Iota.smcp" horiz-adv-x="423" 
d="M45 160v887q0 159 158 159q80 0 118.5 -39t38.5 -120v-887q0 -82 -38.5 -121t-118.5 -39q-158 0 -158 160z" />
    <glyph glyph-name="Kappa.smcp" horiz-adv-x="1210" 
d="M43 147v920q0 145 156 145q159 0 159 -145v-338l486 434q53 47 102 47q64 0 115 -51.5t51 -114.5q0 -67 -47 -108q-71 -61 -173 -146t-151 -126l353 -388q55 -47 55 -118q0 -69 -58 -114.5t-102 -45.5q-33 0 -58 9t-37.5 19.5t-33.5 32.5l-354 383l-148 -127v-168
q0 -147 -155 -147q-160 0 -160 147z" />
    <glyph glyph-name="Lambda.smcp" horiz-adv-x="1323" 
d="M1120 0q-111 0 -149 100l-328 648q-164 -346 -299 -623q-24 -58 -67.5 -91.5t-100.5 -33.5q-74 0 -110.5 45t-36.5 111q0 35 16 75l408 854q26 68 75.5 104t114.5 36q137 0 191 -138q77 -152 219.5 -441t206.5 -417q16 -39 16 -75q0 -69 -41.5 -111.5t-114.5 -42.5z" />
    <glyph glyph-name="Mu.smcp" horiz-adv-x="1636" 
d="M641 1042l143 -464q26 72 76 236.5t72 227.5q63 181 215 181q86 0 138 -51.5t65 -153.5l172 -852q0 -1 1 -3t1 -3q0 -72 -45.5 -115t-114.5 -43q-68 0 -109 38t-53 107l-92 508q-25 -72 -83.5 -252.5t-88.5 -265.5q-50 -137 -160 -137q-116 0 -160 137l-161 520
q-20 -90 -55 -273.5t-46 -236.5v9q-11 -79 -48.5 -116.5t-112.5 -37.5q-72 0 -114 39t-42 115q0 29 4 43l178 821q44 205 207 205q73 0 129 -48.5t84 -134.5z" />
    <glyph glyph-name="Nu.smcp" horiz-adv-x="1232" 
d="M41 162v891q0 85 39.5 128.5t116.5 43.5q101 0 170 -103q290 -355 438 -532v473q0 160 153 160q160 0 160 -160v-891q0 -172 -157 -172q-98 0 -162 88q-111 136 -243 293.5t-200 239.5v-459q0 -162 -157 -162q-158 0 -158 162z" />
    <glyph glyph-name="Xi.smcp" horiz-adv-x="1331" 
d="M223 1204h811q80 0 120 -39t40 -121q0 -153 -160 -153h-811q-157 0 -157 153q0 83 38.5 121.5t118.5 38.5zM352 750h539q82 0 120 -33t38 -111q0 -72 -38.5 -104.5t-119.5 -32.5h-539q-80 0 -118.5 33.5t-38.5 109.5q0 73 38.5 105.5t118.5 32.5zM209 319h842
q168 0 168 -157q0 -158 -168 -158h-842q-86 0 -127 38t-41 120q0 80 41 118.5t127 38.5z" />
    <glyph glyph-name="Omicron.smcp" horiz-adv-x="1402" 
d="M672 1212q174 0 316 -81t222 -222.5t80 -314.5q0 -164 -75.5 -302.5t-218.5 -223t-324 -84.5q-141 0 -260 49.5t-197.5 134t-122 196t-43.5 236.5q0 82 22.5 165.5t73 164t121 143t176 101t230.5 38.5zM672 897q-137 0 -219 -81t-82 -212q0 -129 85 -218t220 -89
q127 0 208 84t81 209q0 128 -83 217.5t-210 89.5z" />
    <glyph glyph-name="Pi.smcp" horiz-adv-x="1163" 
d="M195 1196h702q63 0 111.5 -49.5t48.5 -112.5v-874q0 -160 -156 -160q-82 0 -121 39t-39 121v717h-387v-717q0 -160 -161 -160q-154 0 -154 160v874q0 162 156 162z" />
    <glyph glyph-name="Rho.smcp" horiz-adv-x="1087" 
d="M39 160v880q0 84 41 124t125 40h368q112 0 202.5 -36.5t145.5 -97.5t84 -136t29 -158q0 -68 -16.5 -131.5t-52.5 -121t-87.5 -100.5t-126.5 -68t-165 -25h-234v-170q0 -82 -38.5 -121t-118.5 -39t-118 39t-38 121zM549 891h-197v-246h226q73 0 107 33.5t34 83.5
q0 54 -41 91.5t-129 37.5z" />
    <glyph glyph-name="Sigma.smcp" horiz-adv-x="1157" 
d="M551 909l170 -186q37 -55 37 -109q0 -34 -29 -90l-221 -229h422q84 0 122 -31.5t38 -107.5q0 -156 -160 -156h-735q-154 0 -154 168q0 32 8 52.5t29 51.5l313 346l-272 310q-23 35 -32 49t-16.5 34.5t-7.5 41.5q0 151 185 151h659q160 0 160 -160q0 -75 -38.5 -105
t-121.5 -30h-356z" />
    <glyph glyph-name="Tau.smcp" horiz-adv-x="1077" 
d="M379 168v721h-176q-84 0 -124 38t-40 117q0 82 39.5 120t124.5 38h671q160 0 160 -158q0 -155 -160 -155h-178v-721q0 -168 -157 -168q-160 0 -160 168z" />
    <glyph glyph-name="Upsilon.smcp" horiz-adv-x="1157" 
d="M399 170v219q-37 64 -155 268.5t-181 315.5q-22 37 -22 92q0 75 38 114.5t111 39.5q90 0 136 -84l241 -461q39 66 118 233t114 226q53 86 145 86q75 0 113.5 -38t38.5 -110q0 -38 -23 -86l-354 -602v-213q0 -170 -160 -170t-160 170z" />
    <glyph glyph-name="Phi.smcp" horiz-adv-x="1361" 
d="M492 1042v15q0 155 159 155q154 0 160 -147v22v-45q220 -15 333 -129.5t113 -298.5q0 -171 -119.5 -283t-328.5 -132v-37q0 -162 -158 -162q-159 0 -159 162v37q-217 20 -334 131t-117 286q0 174 121.5 289t329.5 137zM492 487v267q-71 0 -111.5 -39t-40.5 -92
q0 -55 41 -95.5t111 -40.5zM809 754v-267q70 0 111 42t41 98q0 52 -39.5 89.5t-112.5 37.5z" />
    <glyph glyph-name="Chi.smcp" horiz-adv-x="1095" 
d="M88 285l281 329l-242 314q-37 42 -37 106q0 67 47.5 112.5t112.5 45.5q94 0 147 -80l146 -252l151 256q54 78 144 78q67 0 114 -44.5t47 -111.5q0 -61 -41 -110l-243 -303l280 -332q52 -63 52 -143q0 -150 -148 -150q-108 0 -166 94l-201 281q-27 -38 -94 -135t-104 -148
q-58 -88 -152 -88q-143 0 -143 146q0 71 49 135z" />
    <glyph glyph-name="Psi.smcp" horiz-adv-x="1429" 
d="M813 1073v-536q74 26 103.5 113t29.5 229v112q0 158 160 158q158 0 158 -158v-135q0 -564 -451 -614v-84q0 -158 -158 -158q-157 0 -157 158v86q-451 58 -451 612v135q0 77 41.5 117.5t120.5 40.5q75 0 114 -40.5t39 -117.5v-112q0 -125 33 -216t103 -122v532
q0 160 157 160q158 0 158 -160z" />
    <glyph glyph-name="Omega.smcp" horiz-adv-x="1300" 
d="M281 315h723q76 0 114.5 -41t38.5 -116q0 -158 -153 -158h-723q-152 0 -152 158q0 75 38.5 116t113.5 41zM633 1212q120 0 219 -36.5t162 -97.5t97 -138t34 -160q0 -80 -32 -151t-93 -127.5t-161 -89.5t-226 -33t-226 33.5t-161 90t-93 128t-32 151.5q0 83 33.5 159
t96.5 137t162 97.5t220 36.5zM633 932q-94 0 -143.5 -39.5t-49.5 -99.5q0 -62 52.5 -105t144.5 -43q95 0 146 39.5t51 99.5q0 62 -53 105t-148 43z" />
    <glyph glyph-name="Alphatonos.smcp" horiz-adv-x="1392" 
d="M664 770l-95 -192h191q0 1 -16 39t-34.5 74t-45.5 79zM997 92l-98 184h-463l-74 -153l3 6q-43 -129 -168 -129q-74 0 -111 45t-37 111q0 32 17 75l407 854q26 68 76 104t115 36q136 0 190 -138q77 -152 219.5 -441t206.5 -417q16 -39 16 -75q0 -69 -41 -111.5t-114 -42.5
q-112 0 -150 100z" />
    <glyph glyph-name="Epsilontonos.smcp" horiz-adv-x="993" 
d="M35 174v856q0 172 164 172h553q83 0 121 -38t38 -120q0 -79 -38.5 -117t-120.5 -38h-404v-146h318q84 0 121.5 -30.5t37.5 -106.5t-37.5 -105.5t-121.5 -29.5h-318v-156h420q170 0 170 -157q0 -158 -170 -158h-569q-106 0 -135 33t-29 141z" />
    <glyph glyph-name="Iotatonos.smcp" horiz-adv-x="423" 
d="M45 160v887q0 159 158 159q80 0 118.5 -39t38.5 -120v-887q0 -82 -38.5 -121t-118.5 -39q-158 0 -158 160z" />
    <glyph glyph-name="Etatonos.smcp" horiz-adv-x="1175" 
d="M39 158v891q0 159 156 159q82 0 120.5 -38.5t38.5 -120.5v-277h387v277q0 159 158 159q160 0 160 -159v-891q0 -78 -41 -118t-119 -40q-158 0 -158 158v297h-387v-297q0 -158 -157 -158q-158 0 -158 158z" />
    <glyph glyph-name="Omicrontonos.smcp" horiz-adv-x="1402" 
d="M672 1212q174 0 316 -81t222 -222.5t80 -314.5q0 -164 -75.5 -302.5t-218.5 -223t-324 -84.5q-141 0 -260 49.5t-197.5 134t-122 196t-43.5 236.5q0 82 22.5 165.5t73 164t121 143t176 101t230.5 38.5zM672 897q-137 0 -219 -81t-82 -212q0 -129 85 -218t220 -89
q127 0 208 84t81 209q0 128 -83 217.5t-210 89.5z" />
    <glyph glyph-name="Upsilontonos.smcp" horiz-adv-x="1120" 
d="M379 170v219q-37 64 -155 268.5t-181 315.5q-23 39 -23 92q0 75 38.5 114.5t111.5 39.5q89 0 135 -84l242 -461q39 66 117.5 233t113.5 226q53 86 146 86q151 0 151 -148q0 -40 -22 -86l-355 -602v-213q0 -87 -39.5 -128.5t-119.5 -41.5q-160 0 -160 170z" />
    <glyph glyph-name="Omegatonos.smcp" horiz-adv-x="1300" 
d="M281 315h723q76 0 114.5 -41t38.5 -116q0 -158 -153 -158h-723q-152 0 -152 158q0 75 38.5 116t113.5 41zM633 1212q126 0 223 -38t154 -102t85.5 -141.5t28.5 -164.5q0 -83 -29.5 -155t-87.5 -129.5t-154.5 -90.5t-219.5 -33q-223 0 -355.5 110.5t-132.5 281.5
q0 67 16 130.5t53 124.5t92 106.5t139 73t188 27.5zM633 920q-82 0 -130 -40t-48 -94q0 -62 45.5 -105.5t136.5 -43.5q84 0 134 41.5t50 97.5q0 57 -52 100.5t-136 43.5z" />
    <glyph glyph-name="Iotadieresis.smcp" horiz-adv-x="346" 
d="M6 160v887q0 159 158 159q80 0 119 -39t39 -120v-887q0 -160 -158 -160t-158 160z" />
    <glyph glyph-name="Upsilondieresis.smcp" horiz-adv-x="1157" 
d="M399 170v219q-37 64 -155 268.5t-181 315.5q-22 37 -22 92q0 75 38 114.5t111 39.5q90 0 136 -84l241 -461q39 66 118 233t114 226q53 86 145 86q75 0 113.5 -38t38.5 -110q0 -38 -23 -86l-354 -602v-213q0 -170 -160 -170t-160 170z" />
    <glyph glyph-name="sigma1.smcp" horiz-adv-x="1157" 
d="M561 909l170 -186q37 -55 37 -109q0 -34 -29 -90l-221 -229h422q84 0 122 -31.5t38 -107.5q0 -156 -160 -156h-735q-154 0 -154 168q0 32 8 52.5t29 51.5l313 346l-272 310q-32 48 -43.5 71.5t-11.5 53.5q0 151 184 151h660q159 0 159 -160q0 -75 -38 -105t-121 -30h-357
z" />
    <glyph glyph-name="iotadieresistonos.smcp" horiz-adv-x="346" 
d="M6 160v887q0 159 158 159q80 0 119 -39t39 -120v-887q0 -160 -158 -160t-158 160z" />
    <glyph glyph-name="upsilondieresistonos.smcp" horiz-adv-x="1157" 
d="M399 170v219q-37 64 -155 268.5t-181 315.5q-22 37 -22 92q0 75 38 114.5t111 39.5q90 0 136 -84l241 -461q39 66 118 233t114 226q53 86 145 86q75 0 113.5 -38t38.5 -110q0 -38 -23 -86l-354 -602v-213q0 -170 -160 -170t-160 170z" />
    <glyph glyph-name="zero.tnum" 
d="M682 1581h8q115 0 208.5 -51.5t152.5 -134t99 -190.5t56.5 -214t16.5 -213q0 -103 -17.5 -209.5t-58.5 -214t-101 -190.5t-153 -135t-207 -52q-86 0 -160 26.5t-128.5 71.5t-98.5 107.5t-73 133t-48.5 150t-28 156t-8.5 152.5q0 87 12.5 176t38 181t69.5 172t102 143
t140 99t179 36zM686 301q43 0 79 33t59 84t38.5 115t22 123t6.5 112q0 79 -11 159t-33.5 155.5t-64 123t-94.5 47.5q-59 0 -103 -49.5t-66 -128t-32 -154.5t-10 -149q0 -75 11.5 -153t34.5 -151.5t65.5 -120t97.5 -46.5z" />
    <glyph glyph-name="one.tnum" 
d="M1124 2h-786q-85 0 -122.5 28t-37.5 101q0 72 38 101.5t122 29.5h242v901q-63 -24 -111 -24q-65 0 -110.5 42.5t-45.5 108.5q0 55 34.5 100t101.5 64l301 82q53 0 90.5 -28t52.5 -68q16 -22 16 -125v-1053h215q85 0 123.5 -29.5t38.5 -103.5q0 -71 -38.5 -99t-123.5 -28z
" />
    <glyph glyph-name="two.tnum" 
d="M207 1108q0 105 41 194.5t109 148t154 91.5t177 33q89 0 173.5 -31t150.5 -86t106.5 -137.5t40.5 -177.5q0 -96 -39.5 -202.5t-109.5 -201.5q-37 -49 -138 -181t-180 -239h330q156 0 156 -157q0 -78 -40 -120t-118 -42h-606q-191 0 -191 158q0 60 45 121l498 673
q61 79 61 176q0 56 -43.5 89.5t-101.5 33.5q-60 0 -102.5 -39.5t-42.5 -111.5q0 -63 -43.5 -121.5t-118.5 -58.5q-78 0 -123 59t-45 129z" />
    <glyph glyph-name="three.tnum" 
d="M668 1581q130 0 234 -63t158 -160t54 -205q0 -95 -44.5 -178t-135.5 -141q117 -64 176 -164.5t59 -216.5q0 -89 -35 -174t-97 -152.5t-157.5 -108.5t-207.5 -41q-127 0 -232.5 58t-169.5 145q-59 83 -59 182q0 76 44 120t107 44q45 0 89 -27.5t65 -74.5q52 -119 154 -119
q70 0 121 44.5t51 123.5q0 69 -35.5 129t-99.5 70h-68q-89 0 -131.5 33t-42.5 106q0 74 42 104.5t132 30.5q39 0 59 4q39 11 64.5 66.5t25.5 109.5q0 61 -34.5 98.5t-94.5 37.5q-34 0 -60 -9.5t-39 -21.5t-21.5 -29.5t-10 -25t-2.5 -17.5q-1 -12 -7 -28t-19 -36t-39.5 -33
t-61.5 -13q-170 0 -170 147q0 98 56 186.5t158 143.5t225 55z" />
    <glyph glyph-name="four.tnum" 
d="M752 176v168h-430q-88 0 -137.5 50.5t-49.5 125.5q0 68 43 125l-4 -6l475 766q81 131 217 131q90 0 149.5 -61t59.5 -164v-647q154 0 154 -162q0 -156 -152 -156v-170q0 -87 -42 -131.5t-122 -44.5q-76 0 -118.5 45t-42.5 131zM752 993l-191 -329h191v329z" />
    <glyph glyph-name="five.tnum" 
d="M578 1532h430q73 0 116 -49t43 -121q0 -160 -159 -160h-340q-4 -34 -25 -158q131 0 235 -43.5t167 -117t96 -164t33 -191.5q0 -103 -34.5 -200t-100 -176t-171 -127t-235.5 -48q-95 0 -184 31t-150 78.5t-98 104.5t-37 108q0 73 44 115.5t105 42.5q35 0 70 -18.5
t59 -51.5q30 -39 87 -64.5t112 -25.5q89 0 146 64.5t57 150.5q0 87 -54.5 152t-152.5 65q-35 0 -93.5 -15.5t-88.5 -15.5q-164 0 -164 158q0 33 96 526q14 70 64 110t127 40z" />
    <glyph glyph-name="six.tnum" 
d="M911 1262q-10 -9 -47.5 -42t-53.5 -47.5t-48 -46.5t-50 -55t-39.5 -56t-35.5 -65q57 31 166 31q95 0 171 -38.5t123 -103t72 -144t25 -165.5q0 -146 -61.5 -271t-180 -203.5t-268.5 -78.5q-120 0 -218 48.5t-159.5 130t-94 184.5t-32.5 217q0 133 41 267.5t113 253
t154.5 218t181.5 191.5q63 49 123 49q72 0 120 -44t48 -120q0 -60 -50 -110zM504 528q0 -92 48.5 -161t131.5 -72q87 7 137.5 74.5t50.5 156.5q0 86 -49 147.5t-143 61.5q-85 0 -130.5 -61.5t-45.5 -145.5z" />
    <glyph glyph-name="seven.tnum" 
d="M354 1534h645q70 0 122.5 -49.5t52.5 -126.5q0 -35 -19 -84l-483 -1145q-56 -129 -172 -129q-78 0 -116 47.5t-38 114.5q0 40 19 84q255 602 409 956h-420q-176 0 -176 168q0 164 176 164z" />
    <glyph glyph-name="eight.tnum" 
d="M184 485q0 106 58.5 207t148.5 152q-70 42 -112.5 125.5t-42.5 175.5q0 181 131.5 304.5t316.5 123.5q190 0 314 -120t124 -308q0 -83 -44.5 -164.5t-112.5 -124.5q84 -40 149.5 -153t65.5 -222q0 -135 -64.5 -250.5t-179 -184.5t-250.5 -69q-223 0 -362.5 143.5
t-139.5 364.5zM686 676q-73 0 -119.5 -54t-46.5 -130q0 -79 45.5 -133t120.5 -54q70 0 114 53t44 129q0 79 -45.5 134t-112.5 55zM680 993q48 0 78 42.5t30 99.5q0 55 -31.5 86.5t-74.5 31.5q-48 0 -83.5 -31.5t-35.5 -86.5q0 -59 31.5 -100.5t85.5 -41.5z" />
    <glyph glyph-name="nine.tnum" 
d="M469 256q207 166 315 326q-98 -35 -192 -35q-103 0 -188.5 43.5t-139 114.5t-83 156t-29.5 173q0 104 33.5 200t96.5 174t165 124.5t229 46.5q156 0 273.5 -78.5t178 -212t60.5 -301.5q0 -84 -14 -170.5t-50.5 -191.5t-93 -205t-149 -209t-211.5 -205q-48 -39 -113 -39
q-66 0 -111 43.5t-45 106.5q0 49 17.5 80.5t50.5 58.5zM668 1255q-62 0 -106.5 -37t-63.5 -88t-19 -106q0 -104 56 -164.5t135 -60.5q87 0 142.5 56.5t55.5 166.5q0 58 -20 109t-67 87.5t-113 36.5z" />
    <glyph glyph-name="zero.onum.tnum" horiz-adv-x="1288" 
d="M682 1288h8q105 0 193.5 -36.5t150 -98.5t105 -145.5t64 -176.5t20.5 -192q0 -127 -33.5 -243t-97.5 -211t-169 -151.5t-237 -56.5q-105 0 -195 36.5t-153 99.5t-107.5 147t-66 178.5t-21.5 194.5q0 125 34.5 241t100 209t170.5 149t234 56zM686 301q67 0 116 48
t72 120.5t23 157.5q0 86 -23 161t-72 125t-114 50q-70 0 -120.5 -48t-73.5 -120.5t-23 -157.5q0 -136 57 -236t158 -100z" />
    <glyph glyph-name="one.onum.tnum" 
d="M1124 2h-786q-85 0 -122.5 28t-37.5 101q0 72 38 101.5t122 29.5h242v649q-63 -24 -111 -24q-65 0 -110.5 42.5t-45.5 108.5q0 55 34.5 100t101.5 64l301 82q53 0 90.5 -28t52.5 -68q16 -22 16 -125v-801h215q85 0 123.5 -29.5t38.5 -103.5q0 -71 -38.5 -99t-123.5 -28z
" />
    <glyph glyph-name="two.onum.tnum" 
d="M207 834q0 140 70.5 248.5t179 163t231.5 54.5q89 0 173.5 -31.5t150.5 -86.5t106.5 -138t40.5 -178q0 -43 -4 -73.5t-23.5 -82t-56 -102.5t-106.5 -126t-170 -163h223q156 0 156 -157q0 -78 -40 -120t-118 -42h-606q-191 0 -191 158q0 66 53 133q167 143 259.5 225
t158.5 143t91 94.5t33.5 54.5t8.5 48q0 56 -43.5 89.5t-101.5 33.5q-60 0 -102.5 -40.5t-42.5 -113.5q0 -38 -17 -77.5t-55.5 -70t-89.5 -30.5q-78 0 -123 58.5t-45 128.5z" />
    <glyph glyph-name="three.onum.tnum" 
d="M668 1315q130 0 234 -63t158 -160t54 -205q0 -95 -45 -178.5t-135 -141.5q117 -64 176 -164.5t59 -216.5q0 -89 -35 -174t-97 -152t-157.5 -108t-207.5 -41q-127 0 -232.5 58t-169.5 145q-59 83 -59 182q0 76 44 120t107 44q45 0 89 -27.5t65 -74.5q52 -119 154 -119
q70 0 121 44.5t51 123.5q0 69 -35.5 129t-99.5 70h-68q-89 0 -131.5 33t-42.5 106q0 74 42 104.5t132 30.5q39 0 59 4q39 11 64.5 66.5t25.5 109.5q0 61 -34 98t-95 37q-34 0 -60 -9.5t-39 -21t-21.5 -29t-10 -25.5t-2.5 -17q-1 -12 -7 -28t-19 -36t-39.5 -33.5t-61.5 -13.5
q-170 0 -170 148q0 98 56 186.5t158 143.5t225 55z" />
    <glyph glyph-name="four.onum.tnum" 
d="M752 -59v165h-430q-88 0 -137.5 51.5t-49.5 127.5q0 69 43 123l471 759q79 129 217 129q90 0 149.5 -60.5t59.5 -160.5v-647q154 -3 154 -164q0 -153 -152 -153v-170q0 -88 -42 -133.5t-122 -45.5q-76 0 -118.5 46t-42.5 133zM752 735l-191 -307h191v307z" />
    <glyph glyph-name="five.onum.tnum" 
d="M578 1245h430q73 0 116 -49t43 -121q0 -160 -159 -160h-340q-4 -30 -25 -157q131 0 235 -43.5t167 -117t96 -164t33 -191.5q0 -103 -34.5 -200t-100 -176t-171 -127t-235.5 -48q-95 0 -184 31t-150 78t-98 104t-37 108q0 73 44 115.5t105 42.5q35 0 70 -18.5t59 -51.5
q30 -39 87 -64.5t112 -25.5q89 0 146 64.5t57 150.5q0 87 -54.5 152t-152.5 65q-35 0 -93.5 -15t-88.5 -15q-164 0 -164 157q0 34 96 527q14 70 64 109.5t127 39.5z" />
    <glyph glyph-name="six.onum.tnum" 
d="M911 1262q-10 -9 -47.5 -42t-53.5 -47.5t-48 -46.5t-50 -55t-39.5 -56t-35.5 -65q57 31 166 31q95 0 171 -38.5t123 -103t72 -144t25 -165.5q0 -146 -61.5 -271t-180 -203.5t-268.5 -78.5q-120 0 -218 48.5t-159.5 130t-94 184.5t-32.5 217q0 133 41 267.5t113 253
t154.5 218t181.5 191.5q63 49 123 49q72 0 120 -44t48 -120q0 -60 -50 -110zM504 528q0 -92 48.5 -161t131.5 -72q87 7 137.5 74.5t50.5 156.5q0 86 -49 147.5t-143 61.5q-85 0 -130.5 -61.5t-45.5 -145.5z" />
    <glyph glyph-name="seven.onum.tnum" 
d="M354 1274h645q70 0 122.5 -50.5t52.5 -127.5q0 -33 -19 -82l-483 -1145q-56 -129 -172 -129q-78 0 -116 47.5t-38 114.5q0 40 19 84l409 956h-420q-90 0 -133 41t-43 125t43 125t133 41z" />
    <glyph glyph-name="eight.onum.tnum" 
d="M184 485q0 106 58.5 207t148.5 152q-70 42 -112.5 125.5t-42.5 175.5q0 181 131.5 304.5t316.5 123.5q190 0 314 -120t124 -308q0 -83 -44.5 -164.5t-112.5 -124.5q84 -40 149.5 -153t65.5 -222q0 -135 -64.5 -250.5t-179 -184.5t-250.5 -69q-223 0 -362.5 143.5
t-139.5 364.5zM686 676q-73 0 -119.5 -54t-46.5 -130q0 -79 45.5 -133t120.5 -54q70 0 114 53t44 129q0 79 -45.5 134t-112.5 55zM680 993q48 0 78 42.5t30 99.5q0 55 -31.5 86.5t-74.5 31.5q-48 0 -83.5 -31.5t-35.5 -86.5q0 -59 31.5 -100.5t85.5 -41.5z" />
    <glyph glyph-name="nine.onum.tnum" 
d="M469 -39q207 166 315 326q-98 -35 -192 -35q-103 0 -188.5 43.5t-139 114.5t-83 156t-29.5 173q0 104 33.5 200t96.5 174t165 124.5t229 46.5q156 0 273.5 -78.5t178 -212t60.5 -301.5q0 -84 -14 -170.5t-50.5 -191.5t-93 -205t-149 -209t-211.5 -205q-48 -39 -113 -39
q-66 0 -111 43.5t-45 106.5q0 49 17.5 80.5t50.5 58.5zM668 950q-62 0 -106.5 -37t-63.5 -88t-19 -106q0 -104 56 -164.5t135 -60.5q87 0 142.5 56.5t55.5 166.5q0 58 -20 109t-67 87.5t-113 36.5z" />
    </font>
</defs>
</svg>
